<svg width="550" height="460" viewBox="0 0 550 460" fill="#333459" xmlns="http://www.w3.org/2000/svg">
<rect x="0" width="550" height="460" rx="4" fill="#333459"/>
<mask id="mask0" mask-type="alpha" maskUnits="userSpaceOnUse" x="0" y="0" width="550" height="460">
<path opacity="0.0823568" d="M241.271 136.593L243.069 134.448L275.049 161.951L273.251 164.096L241.271 136.593Z" fill="white"/>
<path opacity="0.0823568" d="M304.002 108.839L291.897 132.204L301.725 156.145L299.153 157.201L288.836 132.068L301.533 107.559L304.002 108.839Z" fill="white"/>
<path opacity="0.0823568" d="M331.486 109.156L328.342 149.303L359.839 155.149L359.332 157.891L325.371 151.588L328.711 108.938L331.486 109.156Z" fill="white"/>
<path opacity="0.0823568" d="M351.64 125.316L349.499 123.489C349.84 123.08 350.467 122.548 351.411 122.042C358.923 118.02 371.49 122.339 390.17 140.69L388.218 142.723C378.102 132.785 369.747 127.05 363.028 124.74C358.351 123.133 354.997 123.328 352.722 124.546C352.113 124.872 351.761 125.171 351.64 125.316Z" fill="white"/>
<path opacity="0.0823568" d="M393.617 108.424L395.315 106.18C395.487 106.308 395.8 106.549 396.233 106.895C396.949 107.467 397.745 108.13 398.601 108.877C401.044 111.008 403.487 113.391 405.77 115.971C413.017 124.159 417.093 132.446 416.258 140.358C415.338 149.074 408.459 156.427 394.842 162.028L393.758 159.437C406.5 154.196 412.646 147.627 413.444 140.066C414.177 133.117 410.42 125.477 403.644 117.821C401.447 115.339 399.089 113.039 396.732 110.982C395.907 110.263 395.143 109.627 394.458 109.08C394.051 108.754 393.764 108.533 393.617 108.424Z" fill="white"/>
<path opacity="0.0823568" d="M468.066 128.427L435.623 115.928L450.827 143.465L448.355 144.791L429.463 110.576L463.221 123.582L455.414 103.015L458.05 102.043L468.066 128.427Z" fill="white"/>
<path opacity="0.0823568" d="M413.492 168.543L416.117 167.544C416.143 167.61 416.189 167.731 416.252 167.902C416.355 168.182 416.47 168.505 416.593 168.865C416.943 169.891 417.292 171.02 417.618 172.221C418.318 174.796 418.815 177.341 419.02 179.739C419.402 184.219 418.744 187.822 416.668 190.216C414.105 193.172 409.743 193.855 403.592 192.097C398.32 190.59 393.996 188.313 390.052 185.269C388.887 184.37 387.787 183.431 386.589 182.336C385.933 181.736 383.982 179.894 383.856 179.777C382.032 178.083 381.005 177.351 380.129 177.15C378.561 176.791 376.602 178.498 373.286 183.99L370.868 182.57C374.776 176.096 377.522 173.704 380.764 174.446C382.296 174.796 383.598 175.725 385.784 177.756C385.925 177.887 387.866 179.718 388.502 180.3C389.646 181.346 390.688 182.236 391.785 183.082C395.459 185.917 399.465 188.027 404.375 189.43C409.569 190.915 412.797 190.409 414.53 188.411C416.007 186.708 416.541 183.783 416.216 179.972C416.027 177.756 415.56 175.367 414.9 172.939C414.59 171.798 414.258 170.724 413.926 169.751C413.728 169.171 413.576 168.757 413.492 168.543Z" fill="white"/>
<path opacity="0.0823568" d="M435.667 164.808L438.067 163.407C438.102 163.465 438.175 163.585 438.286 163.763C438.473 164.064 438.697 164.415 438.956 164.812C439.701 165.949 440.579 167.219 441.584 168.588C444.457 172.501 447.769 176.416 451.469 180.065C458.992 187.485 467.115 192.83 475.649 195.224L474.89 197.881C465.839 195.342 457.334 189.746 449.504 182.022C445.692 178.262 442.287 174.237 439.331 170.212C438.296 168.802 437.39 167.492 436.619 166.314C436.348 165.9 436.113 165.531 435.915 165.213C435.794 165.018 435.711 164.882 435.667 164.808Z" fill="white"/>
<path opacity="0.0823568" d="M508.032 215.123L505.959 181.339L472.892 175.129L473.41 172.37L508.628 178.984L510.704 212.814L534.933 217.886L534.357 220.633L508.032 215.123Z" fill="white"/>
<path opacity="0.0823568" d="M580.442 209.602L572.862 165.301L546.786 199.03L544.584 197.326L574.537 158.581L583.187 209.132L580.442 209.602Z" fill="white"/>
<path opacity="0.0823568" d="M547.863 255.797L560.822 221.344L540.072 229.431L539.069 226.838L565.607 216.497L553.132 249.66L580.458 234.35L581.808 236.778L547.863 255.797Z" fill="white"/>
<path opacity="0.0823568" d="M540.791 174.438L528.645 152.776L512.742 168.648L500.466 150.993L502.738 149.412L513.127 164.353L529.274 148.238L543.205 173.084L540.791 174.438Z" fill="white"/>
<path opacity="0.0823568" d="M531.46 122.728L555.089 136.139L578.673 126.147L579.74 128.757L554.913 139.275L530.107 125.196L531.46 122.728Z" fill="white"/>
<path opacity="0.0823568" d="M588.012 136.847L590.667 135.828C590.771 136.103 590.999 136.621 591.355 137.301C591.952 138.444 592.682 139.587 593.544 140.649C597.506 145.53 602.612 147.028 609.381 143.238L610.761 145.738C602.681 150.262 596.115 148.336 591.345 142.459C590.354 141.238 589.523 139.936 588.841 138.634C588.429 137.846 588.155 137.224 588.012 136.847Z" fill="white"/>
<path opacity="0.0823568" d="M595.595 167.69L597.322 165.475C597.495 165.607 597.808 165.853 598.241 166.208C598.956 166.794 599.751 167.474 600.606 168.24C603.047 170.427 605.488 172.874 607.769 175.528C615.287 184.275 619.375 193.15 618.119 201.605C616.836 210.247 609.983 217.625 596.851 223.391L595.703 220.836C608.021 215.427 614.194 208.78 615.32 201.198C616.43 193.727 612.655 185.532 605.613 177.339C603.418 174.784 601.062 172.422 598.707 170.312C597.883 169.574 597.119 168.921 596.435 168.361C596.029 168.028 595.742 167.802 595.595 167.69Z" fill="white"/>
<path opacity="0.0823568" d="M639.714 223.484L642.065 222.013C642.104 222.074 642.187 222.202 642.312 222.39C642.524 222.709 642.778 223.081 643.072 223.501C643.916 224.706 644.913 226.051 646.057 227.501C649.33 231.648 653.12 235.796 657.377 239.664C664.304 245.958 671.777 250.88 679.696 253.91L678.697 256.487C670.424 253.321 662.667 248.213 655.502 241.702C651.124 237.724 647.233 233.465 643.87 229.205C642.692 227.712 641.664 226.325 640.791 225.078C640.484 224.64 640.218 224.25 639.993 223.912C639.857 223.706 639.763 223.562 639.714 223.484Z" fill="white"/>
<path opacity="0.0823568" d="M670.734 192.901L638.182 180.388L652.856 207.612L650.365 208.913L632.131 175.082L665.889 188.059L657.955 167.135L660.597 166.165L670.734 192.901Z" fill="white"/>
<path opacity="0.0823568" d="M706.281 231.665L693.999 211.29L677.976 227.072L665.909 209.164L668.201 207.602L678.408 222.75L694.556 206.844L708.648 230.223L706.281 231.665Z" fill="white"/>
<path opacity="0.0823568" d="M456.437 223.225L455.658 220.624C456.274 220.45 457.419 220.201 459.059 219.956C471.272 218.126 487.048 219.665 505.291 227.1L504.209 229.597C486.463 222.365 471.208 220.877 459.485 222.633C458.596 222.766 457.825 222.908 457.176 223.049C456.797 223.132 456.55 223.194 456.437 223.225Z" fill="white"/>
<path opacity="0.0823568" d="M454.969 209.34L432.627 207.956L442.125 237.695L439.518 238.56L428.773 204.917L446.448 206.012L435.7 197.312L437.405 195.123L454.969 209.34Z" fill="white"/>
<path opacity="0.0823568" d="M365.277 233.734L388.534 245.831L411.836 236.158L412.918 238.724L388.4 248.902L363.975 236.198L365.277 233.734Z" fill="white"/>
<path opacity="0.0823568" d="M359.677 228.218L351.081 200.29L345.306 225.252L342.605 224.599L350.702 189.607L361.208 223.741L389.307 204.358L390.859 206.709L359.677 228.218Z" fill="white"/>
<path opacity="0.0823568" d="M321.249 175.818L321.235 173.193L350.864 173.06L350.877 175.685L321.249 175.818Z" fill="white"/>
<path opacity="0.0823568" d="M398.538 222.013L396.374 220.167C397.02 219.437 398.385 218.453 400.637 217.513C404.856 215.752 410.703 214.841 418.433 215.192L418.301 218.004C410.982 217.672 405.56 218.517 401.758 220.104C400.663 220.56 399.802 221.041 399.149 221.512C398.79 221.77 398.594 221.948 398.538 222.013Z" fill="white"/>
<path opacity="0.0823568" d="M276.662 79.4967L262.56 89.2953L277.117 105.517L255.214 119.969L253.679 117.657L272.9 104.975L258.393 88.8106L275.072 77.2217L276.662 79.4967Z" fill="white"/>
<path opacity="0.0823568" d="M335.022 76.6135L366.335 88.9775L351.779 60.6013L354.264 59.2954L372.247 94.3539L339.991 81.6173L348.383 103.068L345.78 104.112L335.022 76.6135Z" fill="white"/>
<path opacity="0.0823568" d="M364.359 46.1953L352.308 25.8151L336.143 41.2731L323.993 23.4679L326.268 21.8647L336.586 36.9855L352.912 21.374L366.732 44.7462L364.359 46.1953Z" fill="white"/>
<path opacity="0.0823568" d="M372.823 11.0315L396.527 23.1513L420.173 13.8499L421.191 16.4396L396.378 26.2001L371.558 13.5094L372.823 11.0315Z" fill="white"/>
<path opacity="0.0823568" d="M300.324 52.5688L297.812 18.5822L265.398 12.4109L265.92 9.65259L300.443 16.2255L302.958 50.259L326.061 55.1696L325.481 57.9162L300.324 52.5688Z" fill="white"/>
<path opacity="0.0823568" d="M212.316 84.2285L245.916 81.3143L251.619 48.2634L254.369 48.7387L248.3 83.9109L214.676 86.8272L210.238 111.006L207.493 110.501L212.316 84.2285Z" fill="white"/>
<path opacity="0.0823568" d="M171.59 142.033L176.388 169.287L193.626 147.367L195.774 149.087L174.753 175.817L168.89 142.517L171.59 142.033Z" fill="white"/>
<path opacity="0.0823568" d="M200.6 166.854H203.358V198.57H200.6V166.854Z" fill="white"/>
<path opacity="0.0823568" d="M195.772 71.7061L197.842 73.5865L174.407 101.354L172.337 99.4732L195.772 71.7061Z" fill="white"/>
<path opacity="0.0823568" d="M207.587 63.4321L206.594 60.8086C206.732 60.756 207.01 60.6437 207.407 60.4716C208.078 60.1804 208.828 59.8293 209.638 59.4183C211.953 58.2428 214.267 56.8278 216.421 55.1768C222.482 50.5314 226.067 44.9961 226.057 38.5786C226.044 30.174 219.874 20.574 206.115 9.79202L207.846 7.58423C222.217 18.846 228.848 29.1635 228.863 38.5743C228.875 46.0111 224.817 52.2767 218.129 57.4031C215.827 59.1673 213.368 60.6705 210.908 61.9194C210.047 62.3568 209.246 62.7319 208.524 63.0449C208.085 63.2353 207.766 63.3642 207.587 63.4321Z" fill="white"/>
<path opacity="0.0823568" d="M248.165 8.61419L250.412 6.89502C250.758 7.34023 251.236 8.11654 251.703 9.19231C252.793 11.7034 253.247 14.5967 252.704 17.7662C252.101 21.2843 252.192 23.9194 253.219 25.812C254.494 28.1645 257.319 29.3619 262.378 29.0525C273.25 28.3877 277.145 33.85 276.653 41.9841C276.643 42.1498 276.632 42.3192 276.619 42.4936C276.577 43.0496 276.531 43.5237 276.436 44.4507C275.941 49.2698 276.143 50.9369 277.807 52.2979L276.001 54.4692C273.303 52.2616 273.02 49.9337 273.613 44.1652C273.706 43.2625 273.749 42.8066 273.789 42.2835C273.801 42.1226 273.812 41.9671 273.821 41.8157C274.221 35.1877 271.462 31.3172 262.552 31.862C256.481 32.2333 252.582 30.5807 250.719 27.1452C249.316 24.5578 249.206 21.3798 249.906 17.2947C250.351 14.6983 249.982 12.3451 249.096 10.3055C248.88 9.80864 248.651 9.37335 248.424 9.00503C248.296 8.79625 248.204 8.6642 248.165 8.61419Z" fill="white"/>
<path opacity="0.0823568" d="M299.423 68.2992L299.176 65.5372C299.235 65.5323 299.331 65.5259 299.462 65.5199C301.789 65.4135 304.605 65.7346 307.351 66.8612C313.121 69.2293 316.346 74.3832 315.619 82.7377L312.784 82.5036C313.406 75.3501 310.885 71.3197 306.246 69.4163C304.95 68.8843 303.551 68.5538 302.123 68.391C301.14 68.2789 300.273 68.2583 299.595 68.2893C299.503 68.2935 299.445 68.2974 299.423 68.2992Z" fill="white"/>
<path opacity="0.0823568" d="M150.967 50.9905L177.323 49.6407L191.426 28.9583L193.706 30.541L178.829 52.3599L151.107 53.7795L150.967 50.9905Z" fill="white"/>
<path opacity="0.0823568" d="M137.92 0L149.042 29.5874L176.337 12.224L177.851 14.5593L147.63 33.7845L138.457 9.38201L133.006 31.1367L130.286 30.4682L137.92 0Z" fill="white"/>
<path opacity="0.0823568" d="M101.334 14.5577L103.678 13.1001L119.257 39.2217L116.913 40.6793L101.334 14.5577Z" fill="white"/>
<path opacity="0.0823568" d="M154.125 91.0112L141.737 70.5988L125.673 85.8948L113.742 68.2416L116.024 66.6462L126.131 81.6007L142.316 66.1899L156.482 89.5319L154.125 91.0112Z" fill="white"/>
<path opacity="0.0823568" d="M153.035 108.675L155.785 108.249C155.795 108.314 155.82 108.458 155.863 108.667C155.937 109.028 156.032 109.432 156.153 109.869C156.496 111.118 156.963 112.365 157.567 113.518C160.456 119.034 165.119 120.49 172.887 115.465C182.364 109.335 188.548 109.903 191.63 114.925C192.493 116.331 192.893 117.719 193.017 118.706L190.257 119.062C190.241 118.931 190.186 118.651 190.078 118.276C189.894 117.639 189.628 117.002 189.269 116.417C187.104 112.89 182.671 112.483 174.383 117.845C165.2 123.785 158.738 121.767 155.11 114.842C154.403 113.493 153.866 112.06 153.473 110.628C153.235 109.765 153.097 109.085 153.035 108.675Z" fill="white"/>
<path opacity="0.0823568" d="M234.393 115.833L235.067 118.581C234.825 118.647 234.365 118.799 233.763 119.047C232.752 119.462 231.742 119.988 230.807 120.629C226.567 123.539 225.296 127.563 228.613 133.516C235.705 146.242 234.872 149.69 225.337 153.064L224.481 150.373C228.715 148.875 230.153 147.956 230.505 146.497C230.959 144.619 229.773 141.199 226.293 134.954C222.187 127.587 223.973 121.932 229.339 118.25C230.442 117.493 231.614 116.883 232.787 116.401C233.494 116.111 234.054 115.925 234.393 115.833Z" fill="white"/>
<path opacity="0.0823568" d="M61.3732 6.89502L73.8766 22.3273L90.6103 8.86686L92.3724 10.9847L73.4566 26.2005L60.8036 10.5834L46.0285 20.4521L33.0886 10.5346L34.7995 8.37651L46.1411 17.069L61.3732 6.89502Z" fill="white"/>
<path opacity="0.0823568" d="M4.9268 23.4709L4.82635 20.6904C4.85334 20.6894 4.85334 20.6894 4.93962 20.6875C5.91107 20.669 7.2593 20.729 8.85538 20.9336C11.3265 21.2504 13.7789 21.8468 16.0845 22.7955C22.9745 25.6303 27.2974 31.0375 27.6109 39.473C27.9139 47.6283 29.5658 52.1459 32.7366 54.5439C35.3756 56.5397 38.5589 57.2005 46.5818 57.824C46.8489 57.8447 47.0698 57.8617 47.5658 57.8999L47.3554 60.6742C46.859 60.636 46.6372 60.6189 46.3691 60.5981C37.7943 59.9318 34.3002 59.2064 31.0766 56.7685C27.1117 53.77 25.1801 48.4874 24.849 39.577C24.5791 32.3139 20.984 27.8172 15.0389 25.3711C12.9763 24.5224 10.7535 23.9818 8.50631 23.6937C7.05319 23.5075 5.83674 23.4533 4.99184 23.4694L4.9268 23.4709Z" fill="white"/>
<path opacity="0.0823568" d="M77.3563 46.2626L74.6522 46.8844C74.6226 46.7562 74.5849 46.5502 74.5492 46.2756C74.2603 44.0519 74.5632 41.5295 75.9246 39.1146C78.3048 34.8928 83.3435 32.2192 91.5121 31.7158L91.6831 34.4814C84.3907 34.9308 80.2202 37.1437 78.3427 40.4739C77.3159 42.2951 77.0826 44.2378 77.301 45.9192C77.3247 46.1014 77.3463 46.2193 77.3563 46.2626Z" fill="white"/>
<path opacity="0.0823568" d="M98.5765 59.3056L59.3337 63.2666L59.7391 95.1127L56.9642 95.1482L56.5264 60.7537L98.2985 56.5374L98.5765 59.3056Z" fill="white"/>
<path opacity="0.0823568" d="M120.241 131.99L117.353 97.7634L84.7896 91.7027L85.304 88.9429L119.973 95.3954L122.863 129.653L146.831 134.454L146.279 137.206L120.241 131.99Z" fill="white"/>
<path opacity="0.0823568" d="M146.141 148.527L148.711 147.549L156.482 169.324L153.913 170.302L146.141 148.527Z" fill="white"/>
<path opacity="0.0823568" d="M114.955 157.369L114.432 154.63C114.571 154.604 114.804 154.57 115.118 154.537C117.474 154.288 120.126 154.507 122.676 155.567C127.988 157.773 131.111 162.979 130.971 171.68L128.15 171.636C128.272 164.029 125.784 159.881 121.582 158.136C119.538 157.287 117.341 157.105 115.418 157.308C115.182 157.333 115.023 157.356 114.955 157.369Z" fill="white"/>
<path opacity="0.0823568" d="M73.0544 162.028L70.3134 161.546C70.4238 160.909 70.7253 159.774 71.3057 158.201C72.2549 155.628 73.6583 152.732 75.6029 149.571C81.1158 140.609 89.8366 131.278 102.455 122.038L104.091 124.305C91.7594 133.335 83.2877 142.399 77.9681 151.047C76.1214 154.049 74.7992 156.778 73.9139 159.177C73.6082 160.006 73.379 160.731 73.2156 161.346C73.1215 161.7 73.0713 161.93 73.0544 162.028Z" fill="white"/>
<path opacity="0.0823568" d="M33.9286 120.659L33.778 117.614L75.6774 115.143L75.8281 118.188L33.9286 120.659Z" fill="white"/>
<path opacity="0.0823568" d="M2.06848 85.1284L33.341 96.2566L18.9183 69.5901L21.3939 68.2585L39.2932 101.353L6.69967 89.7546L13.6841 109.379L11.0334 110.317L2.06848 85.1284Z" fill="white"/>
<path opacity="0.0823568" d="M32.4123 139.321L12.6102 155.793L37.2247 168.538L35.8972 170.991L7.58282 156.331L30.574 137.207L32.4123 139.321Z" fill="white"/>
<path opacity="0.0823568" d="M61.2569 135.138L62.0411 137.793C61.9494 137.82 61.7578 137.881 61.4806 137.978C61.0075 138.143 60.4775 138.347 59.9051 138.592C58.2672 139.292 56.6295 140.17 55.1084 141.234C47.2184 146.751 45.4439 154.614 53.5918 165.935L51.3252 167.544C42.2382 154.918 44.4001 145.338 53.5043 138.971C55.1957 137.789 56.9998 136.821 58.8039 136.051C59.8915 135.586 60.7469 135.287 61.2569 135.138Z" fill="white"/>
<path opacity="0.0823568" d="M47.2069 195.677L80.7656 192.034L86.8703 158.581L89.6151 159.086L83.1349 194.597L49.6064 198.237L45.491 222.702L42.7395 222.235L47.2069 195.677Z" fill="white"/>
<path opacity="0.0823568" d="M16.0885 181.333L16.5443 184.062C16.4652 184.075 16.2849 184.111 16.0182 184.176C15.5554 184.289 15.0351 184.443 14.4719 184.643C12.8538 185.22 11.2339 186.051 9.72596 187.179C4.51236 191.082 1.84931 197.472 3.15041 207.174L0.347984 207.533C-1.08372 196.858 1.98653 189.491 8.00856 184.983C9.7596 183.672 11.6315 182.712 13.5052 182.045C14.6411 181.64 15.5404 181.421 16.0885 181.333Z" fill="white"/>
<path opacity="0.0823568" d="M11.0295 250.371L21.7585 240.151L16.9199 219.673L31.0191 204.776L33.0886 206.664L20.0112 220.481L24.8712 241.05L14.1313 251.281L18.7859 271.74L16.0287 272.345L11.0295 250.371Z" fill="white"/>
<path opacity="0.0823568" d="M112.855 213.376L97.8505 197.375L114.537 185.47L116.17 187.721L102.057 197.79L117.189 213.925L94.564 228.218L93.0618 225.879L112.855 213.376Z" fill="white"/>
<path opacity="0.0823568" d="M68.3924 226.149L68.9346 228.923C68.6932 228.976 68.233 229.106 67.6294 229.327C66.6158 229.698 65.6027 230.186 64.6661 230.8C60.2562 233.693 59.0167 238.101 62.8312 245.082C67.5256 253.673 66.8228 259.3 62.5134 262.084C61.2376 262.909 59.9798 263.277 59.0819 263.381L58.7921 260.566C58.9056 260.552 59.1521 260.505 59.4842 260.408C60.0483 260.243 60.6117 259.998 61.1287 259.664C64.065 257.767 64.5516 253.871 60.5262 246.504C55.9588 238.145 57.6698 232.061 63.2662 228.39C64.3847 227.656 65.5735 227.084 66.7618 226.649C67.4793 226.386 68.0466 226.226 68.3924 226.149Z" fill="white"/>
<path opacity="0.0823568" d="M78.5855 248.218L80.4637 246.145L108.227 269.582L106.349 271.655L78.5855 248.218Z" fill="white"/>
<path opacity="0.0823568" d="M138.559 217.108L126.464 240.433L136.187 263.669L133.626 264.76L123.393 240.305L136.096 215.807L138.559 217.108Z" fill="white"/>
<path opacity="0.0823568" d="M150.278 208.243L174.951 199.087L152.376 192.978L153.105 190.296L184.056 198.672L154.521 209.633L172.53 237.037L170.2 238.56L150.278 208.243Z" fill="white"/>
<path opacity="0.0823568" d="M192.51 219.075L193.556 216.497C193.813 216.603 194.237 216.797 194.773 217.078C195.66 217.544 196.548 218.09 197.383 218.718C201.759 222.007 203.119 226.28 199.178 230.823C195.564 234.99 190.892 242.811 188.551 249.149C185.71 256.842 186.332 261.366 190.74 262.136C196.704 263.179 201.273 262.614 204.614 261.068C205.342 260.731 205.943 260.374 206.424 260.024C206.691 259.829 206.849 259.692 206.901 259.639L208.872 261.592C208.339 262.137 207.319 262.88 205.769 263.598C201.913 265.382 196.776 266.018 190.266 264.88C183.481 263.693 182.599 257.277 185.959 248.179C188.417 241.521 193.263 233.409 197.095 228.992C199.771 225.906 198.969 223.385 195.728 220.949C195.022 220.418 194.259 219.948 193.495 219.548C193.04 219.309 192.693 219.15 192.51 219.075Z" fill="white"/>
<path opacity="0.0823568" d="M176.446 271.119L152.865 264.919L152.236 287.513L130.976 282.958L131.566 280.223L149.523 284.07L150.157 261.313L177.162 268.414L176.446 271.119Z" fill="white"/>
<path opacity="0.0823568" d="M46.8756 260.23L31.8268 280.998L36.0122 305.646L33.34 306.129L28.9526 280.291L44.7026 258.555L46.8756 260.23Z" fill="white"/>
<path opacity="0.0823568" d="M86.8367 301.992L83.2803 276.476L64.0638 297.178L62.0411 295.249L85.2212 270.276L88.9804 297.248L103.968 287.481L105.47 289.849L86.8367 301.992Z" fill="white"/>
<path opacity="0.0823568" d="M124.414 298.545L126.657 300.21C126.602 300.284 126.489 300.44 126.327 300.672C126.053 301.066 125.747 301.525 125.416 302.045C124.466 303.535 123.516 305.203 122.629 307.007C119.853 312.652 118.319 318.309 118.653 323.512C119.382 334.859 128.872 342.7 150.278 345.424L149.923 348.188C127.307 345.309 116.687 336.536 115.862 323.69C115.491 317.924 117.145 311.824 120.117 305.781C121.051 303.881 122.052 302.124 123.054 300.552C123.406 299.999 123.734 299.509 124.029 299.085C124.209 298.826 124.34 298.645 124.414 298.545Z" fill="white"/>
<path opacity="0.0823568" d="M47.4668 321.338L53.8864 342.324L62.0643 320.608L93.0618 338.093L91.6988 340.526L63.5224 324.633L53.6137 350.945L44.8076 322.157L47.4668 321.338Z" fill="white"/>
<path opacity="0.0823568" d="M11.148 305.678L7.81545 345.325L39.2937 350.932L38.8106 353.704L4.82635 347.65L8.3744 305.44L11.148 305.678Z" fill="white"/>
<path opacity="0.0823568" d="M11.0323 387.433L38.7922 381.772L16.7974 367.801L18.3038 365.425L46.1862 383.137L16.8372 389.121L42.3281 413.688L8.27216 413.192L8.31307 410.378L35.2477 410.771L11.0323 387.433Z" fill="white"/>
<path opacity="0.0823568" d="M91.6831 370.959L60.2331 374.675L63.4766 411.373L60.6984 411.62L57.2158 372.216L91.3567 368.183L91.6831 370.959Z" fill="white"/>
<path opacity="0.0823568" d="M108.36 376.269L119.976 353.45L99.4764 355.006L99.2659 352.19L124.752 350.256L113.923 371.529L137.869 363.876L128.079 395.761L125.402 394.927L133.607 368.2L108.36 376.269Z" fill="white"/>
<path opacity="0.0823568" d="M88.981 390.728L90.0847 388.177C90.2541 388.249 90.5561 388.384 90.972 388.581C91.6563 388.905 92.4165 389.289 93.2339 389.733C95.5675 391 97.901 392.492 100.085 394.206C106.421 399.175 110.276 404.981 110.295 411.603C110.319 420.011 104.057 428.767 90.4984 437.82L88.9257 435.522C101.786 426.935 107.508 418.934 107.487 411.611C107.471 405.994 104.072 400.875 98.3388 396.378C96.2884 394.77 94.0848 393.361 91.8812 392.164C91.1106 391.746 90.3963 391.385 89.7573 391.082C89.3791 390.903 89.1141 390.784 88.981 390.728Z" fill="white"/>
<path opacity="0.0823568" d="M53.147 468.832L67.0663 444.522L33.778 455.304L43.6269 431.615L46.1942 432.691L38.6731 450.782L73.0707 439.641L55.5588 470.225L53.147 468.832Z" fill="white"/>
<path opacity="0.0823568" d="M22.3705 488.157L26.7859 470.484L4.13684 469.659L11.275 442.646L13.9714 443.367L7.73117 466.982L30.332 467.805L25.0764 488.841L22.3705 488.157Z" fill="white"/>
<path opacity="0.0823568" d="M3.27696 515.596L2.75793 512.857C2.86501 512.837 3.05711 512.805 3.3278 512.765C3.77008 512.7 4.27792 512.634 4.84493 512.573C10.094 512.011 15.8385 512.206 21.2873 513.709C31.7886 516.606 38.668 523.768 39.9826 536.125L37.1691 536.415C35.9824 525.262 29.9641 518.996 20.5241 516.392C15.4761 514.999 10.072 514.815 5.15109 515.343C4.62355 515.4 4.15414 515.46 3.74947 515.52C3.512 515.555 3.3523 515.582 3.27696 515.596Z" fill="white"/>
<path opacity="0.0823568" d="M41.2983 481.257L48.8302 506.775L72.3814 516.602L71.2951 519.179L46.5118 508.837L38.6034 482.045L41.2983 481.257Z" fill="white"/>
<path opacity="0.0823568" d="M86.1683 451.78L89.2111 451.609L91.6831 489.36L88.6403 489.531L86.1683 451.78Z" fill="white"/>
<path opacity="0.0823568" d="M70.3134 538.609L92.8874 530.138L81.098 511.81L100.924 503.32L102.023 505.905L85.2535 513.087L97.1284 531.548L71.2947 541.242L70.3134 538.609Z" fill="white"/>
<path opacity="0.0823568" d="M120.621 519.601L134.439 496.057L112.064 505.451L110.985 502.867L141.106 490.221L124.601 518.342L158.55 533.867L157.39 536.416L120.621 519.601Z" fill="white"/>
<path opacity="0.0823568" d="M151.656 468.943L117.97 454.938L125.717 475.463L123.074 476.431L113.053 449.879L145.67 463.44L131.028 434.937L133.543 433.683L151.656 468.943Z" fill="white"/>
<path opacity="0.0823568" d="M157.669 361.977L159.928 363.54C159.814 363.717 159.594 364.065 159.284 364.572C158.764 365.42 158.183 366.398 157.557 367.49C155.768 370.614 153.978 374.026 152.309 377.611C149.496 383.648 147.32 389.545 146.028 395.054C144.18 402.928 144.249 409.556 146.557 414.544L144.105 415.757C141.48 410.083 141.405 402.837 143.386 394.391C144.729 388.668 146.971 382.594 149.86 376.391C151.565 372.73 153.392 369.248 155.219 366.058C155.859 364.941 156.453 363.939 156.988 363.067C157.31 362.541 157.543 362.173 157.669 361.977Z" fill="white"/>
<path opacity="0.0823568" d="M180.238 398.831L170.794 373.989L173.483 373.009L183.366 399.006L171.447 421.962L168.89 420.689L180.238 398.831Z" fill="white"/>
<path opacity="0.0823568" d="M191.306 433.684L189.57 431.517L216.787 410.241L218.523 412.408L191.306 433.684Z" fill="white"/>
<path opacity="0.0823568" d="M210.835 364.158L195.169 379.077L212.319 393.615L210.487 395.761L190.949 379.199L206.7 364.198L193.742 352.33L195.656 350.256L210.835 364.158Z" fill="white"/>
<path opacity="0.0823568" d="M227.878 395.122L227.484 392.406C227.577 392.393 227.729 392.377 227.934 392.361C230.099 392.193 232.608 392.459 235.035 393.52C239.934 395.663 242.81 400.415 242.643 408.172L239.854 408.114C239.998 401.432 237.744 397.707 233.901 396.026C231.965 395.179 229.896 394.96 228.153 395.095C228.008 395.106 227.914 395.117 227.878 395.122Z" fill="white"/>
<path opacity="0.0823568" d="M210.94 458.112L234.962 444.802L214.193 441.278L214.665 438.509L243.339 443.374L216.751 458.106L237.036 469.288L213.456 479.878L212.299 477.317L230.748 469.031L210.94 458.112Z" fill="white"/>
<path opacity="0.0823568" d="M204.05 469.457L205.425 471.895C205.23 472.003 204.883 472.18 204.404 472.404C203.618 472.771 202.737 473.137 201.778 473.478C198.232 474.741 194.616 475.346 191.183 474.913C184.63 474.087 179.856 469.601 177.764 460.831C176.306 454.723 175.338 451.18 174.398 448.659C173.107 445.194 171.967 443.874 170.262 443.505C168.761 443.18 170.548 442.97 160.971 444.361C160.752 444.393 160.537 444.423 160.324 444.453L159.928 441.689C160.137 441.66 160.347 441.63 160.561 441.599C160.567 441.598 165.275 440.873 166.369 440.745C168.275 440.522 169.643 440.513 170.866 440.778C173.697 441.391 175.455 443.426 177.045 447.693C178.036 450.353 179.027 453.975 180.509 460.189C182.338 467.855 186.184 471.469 191.539 472.144C194.463 472.512 197.66 471.978 200.823 470.851C201.693 470.541 202.492 470.209 203.201 469.879C203.619 469.683 203.909 469.535 204.05 469.457Z" fill="white"/>
<path opacity="0.0823568" d="M168.201 478.704L169.848 476.431C170.022 476.556 170.335 476.791 170.769 477.129C171.486 477.687 172.283 478.334 173.141 479.064C175.588 481.149 178.036 483.486 180.323 486.026C188.238 494.812 192.361 503.768 190.511 512.318C188.824 520.11 182.206 526.844 170.072 532.279L168.922 529.72C180.31 524.618 186.291 518.534 187.764 511.725C189.376 504.276 185.605 496.084 178.234 487.902C176.035 485.461 173.676 483.208 171.317 481.198C170.492 480.496 169.727 479.874 169.042 479.342C168.635 479.025 168.348 478.81 168.201 478.704Z" fill="white"/>
<path opacity="0.0823568" d="M205.385 525.384L202.668 524.789C202.798 524.187 203.128 523.11 203.741 521.601C204.742 519.136 206.187 516.332 208.156 513.235C213.74 504.455 222.388 495.054 234.741 485.394L236.446 487.606C224.338 497.074 215.906 506.24 210.497 514.746C208.619 517.699 207.252 520.353 206.314 522.661C205.991 523.458 205.744 524.152 205.564 524.738C205.461 525.075 205.405 525.292 205.385 525.384Z" fill="white"/>
<path opacity="0.0823568" d="M266.777 491.696L266.44 494.502C266.384 494.495 266.259 494.482 266.07 494.469C263.988 494.323 261.537 494.541 259.241 495.399C254.879 497.031 252.317 500.542 252.306 506.768L249.543 506.763C249.556 499.316 252.872 494.772 258.292 492.744C261.01 491.728 263.824 491.478 266.259 491.649C266.498 491.666 266.674 491.683 266.777 491.696Z" fill="white"/>
<path opacity="0.0823568" d="M228.339 525.322L227.484 522.645C227.611 522.604 227.803 522.556 228.056 522.512C231.544 521.907 235.823 523.406 240.019 528.518C242.205 531.181 244.554 531.458 247.329 529.862C249.623 528.544 251.991 525.999 253.812 523.223C258.337 516.328 264.583 514.712 272.981 521.25L271.269 523.473C264.255 518.012 259.831 519.157 256.146 524.772C254.105 527.883 251.457 530.728 248.717 532.303C244.82 534.544 240.967 534.089 237.863 530.307C235.829 527.83 233.788 526.354 231.808 525.66C230.498 525.201 229.383 525.135 228.531 525.283C228.411 525.304 228.345 525.32 228.339 525.322Z" fill="white"/>
<path opacity="0.0823568" d="M311.612 540.552L308.861 513.82L288.836 500.091L290.38 497.805L311.459 512.257L314.342 540.267L311.612 540.552Z" fill="white"/>
<path opacity="0.0823568" d="M259.181 439.889L264.571 469.249L296.137 466.039L296.419 468.824L262.293 472.294L256.437 440.396L259.181 439.889Z" fill="white"/>
<path opacity="0.0823568" d="M300.555 439.873L302.479 437.819L330.197 462.655L328.273 464.709L300.555 439.873Z" fill="white"/>
<path opacity="0.0823568" d="M305.985 475.052L329.472 487.164L352.596 478.023L353.635 480.608L329.317 490.22L304.691 477.521L305.985 475.052Z" fill="white"/>
<path opacity="0.0823568" d="M354.984 538.484L352.963 520.86L331.177 527.872L328.818 500.808L331.613 500.562L333.666 524.115L355.36 517.133L357.771 538.162L354.984 538.484Z" fill="white"/>
<path opacity="0.0823568" d="M304.686 386.135L270.177 385.192L266.092 408.172L263.33 407.684L267.837 382.328L302.395 383.272L308.833 350.945L311.585 351.491L304.686 386.135Z" fill="white"/>
<path opacity="0.0823568" d="M246.744 383.351L241.672 348.851L214.59 356.312L212.319 320.785L215.142 320.608L217.193 352.687L244.009 345.299L249.543 382.947L246.744 383.351Z" fill="white"/>
<path opacity="0.0823568" d="M205.641 306.38L166.117 299.646L158.509 330.95L155.792 330.301L164.013 296.476L206.115 303.65L205.641 306.38Z" fill="white"/>
<path opacity="0.0823568" d="M189.377 325.435L189.57 328.264C189.491 328.269 189.318 328.286 189.067 328.319C188.635 328.375 188.151 328.457 187.628 328.568C186.135 328.886 184.643 329.373 183.264 330.06C178.86 332.254 176.585 335.883 177.363 341.595L174.582 341.982C173.625 334.965 176.602 330.217 182.022 327.517C183.631 326.715 185.341 326.156 187.05 325.793C188.079 325.575 188.889 325.469 189.377 325.435Z" fill="white"/>
<path opacity="0.0823568" d="M213.008 283.878L215.035 281.998C215.086 282.054 215.181 282.161 215.319 282.316C215.546 282.573 215.809 282.873 216.105 283.215C216.949 284.189 217.889 285.297 218.901 286.522C221.793 290.02 224.684 293.748 227.384 297.551C229.853 301.027 232.041 304.4 233.875 307.612C237.751 314.398 239.9 320.181 239.893 324.745L237.146 324.741C237.152 320.79 235.151 315.405 231.5 309.011C229.715 305.885 227.575 302.588 225.157 299.182C222.499 295.438 219.648 291.763 216.798 288.314C215.8 287.107 214.874 286.015 214.044 285.057C213.754 284.722 213.496 284.429 213.275 284.178C213.143 284.029 213.053 283.928 213.008 283.878Z" fill="white"/>
<path opacity="0.0823568" d="M258.033 271.686L252.928 280.624C252.844 280.836 252.711 281.18 252.545 281.635C252.227 282.508 251.908 283.457 251.611 284.447C251.178 285.89 250.829 287.292 250.595 288.601C249.914 292.413 250.327 294.725 251.684 295.171C255.99 296.586 257.952 295.391 266.366 286.754C270.706 282.3 277.316 284.593 280.4 290.642C283.72 297.155 281.734 305.084 273.933 310.955L272.269 308.694C278.995 303.631 280.606 297.198 277.923 291.934C275.612 287.402 271.154 285.856 268.351 288.733C259.197 298.13 256.557 299.737 250.823 297.852C247.585 296.788 246.942 293.193 247.852 288.099C248.107 286.673 248.482 285.168 248.944 283.628C249.258 282.582 249.594 281.582 249.93 280.66C250.133 280.103 250.292 279.693 250.386 279.464L250.468 279.297L255.62 270.276L258.033 271.686Z" fill="white"/>
<path opacity="0.0823568" d="M253.959 339.715L272.419 346.736L285.633 316.471L288.147 317.59L273.884 350.256L252.99 342.31L253.959 339.715Z" fill="white"/>
<path opacity="0.0823568" d="M295.643 355.082L292.972 354.309C293.023 354.132 293.126 353.813 293.288 353.361C293.551 352.623 293.888 351.769 294.306 350.807C295.49 348.077 297.086 345.015 299.152 341.686C305.029 332.215 313.486 322.482 324.985 313.024L326.75 315.174C315.488 324.437 307.232 333.939 301.513 343.155C299.52 346.366 297.987 349.309 296.855 351.916C296.462 352.821 296.148 353.618 295.905 354.297C295.763 354.695 295.678 354.96 295.643 355.082Z" fill="white"/>
<path opacity="0.0823568" d="M329.954 348.311L329.508 345.556C329.62 345.538 329.805 345.515 330.055 345.493C332.423 345.285 335.142 345.563 337.764 346.725C342.984 349.039 346.093 354.198 346.051 362.667L343.223 362.653C343.259 355.251 340.767 351.115 336.605 349.27C334.492 348.333 332.233 348.102 330.307 348.272C330.124 348.288 330.003 348.303 329.954 348.311Z" fill="white"/>
<path opacity="0.0823568" d="M340.99 324.581L338.67 290.732L306.07 284.743L306.581 281.998L341.326 288.381L343.644 322.18L368.111 326.126L367.66 328.882L340.99 324.581Z" fill="white"/>
<path opacity="0.0823568" d="M308.827 424.394L329.944 410.972L314.265 394.237L331.569 381.972L333.187 384.288L318.538 394.671L334.333 411.531L310.328 426.788L308.827 424.394Z" fill="white"/>
<path opacity="0.0823568" d="M357.771 387.35L345.662 411.687L355.372 434.668L352.813 435.752L342.605 411.592L355.284 386.109L357.771 387.35Z" fill="white"/>
<path opacity="0.0823568" d="M284.059 406.793L284.7 409.558C284.464 409.615 284.012 409.752 283.417 409.98C282.418 410.365 281.419 410.863 280.495 411.483C276.509 414.155 275.154 418.022 277.859 423.846C278.364 424.931 278.862 425.974 279.462 427.208C279.588 427.466 280.574 429.483 280.832 430.016C281.823 432.067 282.357 433.297 282.704 434.408C283.613 437.318 283.014 439.337 280.608 441.067C279.379 441.95 277.655 442.806 274.759 444.025L273.699 441.399C276.412 440.257 277.996 439.47 279.007 438.744C280.391 437.749 280.604 437.031 280.054 435.271C279.762 434.336 279.269 433.202 278.337 431.273C278.084 430.748 277.1 428.736 276.971 428.472C276.364 427.224 275.859 426.166 275.346 425.063C272.007 417.875 273.885 412.516 278.969 409.108C280.078 408.364 281.258 407.776 282.437 407.322C283.15 407.048 283.714 406.877 284.059 406.793Z" fill="white"/>
<path opacity="0.0823568" d="M404.646 390.94L375.134 402.482L393.303 429.346L391.01 430.925L370.868 401.146L395.394 391.554L373.059 386.074L373.714 383.351L404.646 390.94Z" fill="white"/>
<path opacity="0.0823568" d="M415.676 333.558L362.205 353.421L392.759 361.353L392.058 364.045L352.945 353.892L414.704 330.95L415.676 333.558Z" fill="white"/>
<path opacity="0.0823568" d="M421.88 360.598H424.638V392.314H421.88V360.598Z" fill="white"/>
<path opacity="0.0823568" d="M364.664 437.235L367.393 436.441L377.762 472.19L375.033 472.984L364.664 437.235Z" fill="white"/>
<path opacity="0.0823568" d="M446.508 494.07L436.39 479.683L419.93 495.047L406.025 472.396L408.377 470.915L420.515 490.686L436.823 475.463L448.764 492.442L446.508 494.07Z" fill="white"/>
<path opacity="0.0823568" d="M403.957 522.621L404.828 519.868L440.492 531.593L439.622 534.347L403.957 522.621Z" fill="white"/>
<path opacity="0.0823568" d="M432.917 503.32L456.213 516.713L479.36 506.582L480.474 509.174L456.043 519.868L431.531 505.776L432.917 503.32Z" fill="white"/>
<path opacity="0.0823568" d="M397.952 478.499L400.51 479.559C400.026 480.749 399.001 482.452 397.319 484.149C396.005 485.475 394.468 486.574 392.696 487.363C386.979 489.909 384.841 496.966 390.166 502.872C396.773 510.2 395.289 516.2 388.22 521.333C387.19 522.081 386.249 522.675 385.252 523.232C384.803 523.483 383.457 524.192 383.215 524.329C382.131 524.941 381.621 525.439 381.027 526.579C380.805 527.006 380.579 527.52 380.341 528.142L377.762 527.138C378.036 526.422 378.304 525.812 378.579 525.283C379.436 523.637 380.335 522.758 381.865 521.894C382.152 521.732 383.505 521.02 383.912 520.792C384.818 520.286 385.667 519.749 386.605 519.069C392.457 514.82 393.478 510.691 388.12 504.749C381.436 497.335 384.24 488.08 391.579 484.811C393.025 484.167 394.282 483.269 395.364 482.177C396.177 481.356 396.844 480.475 397.373 479.597C397.683 479.081 397.873 478.693 397.952 478.499Z" fill="white"/>
<path opacity="0.0823568" d="M414.506 411.38L415.683 408.862C415.943 408.988 416.373 409.218 416.916 409.548C417.815 410.094 418.714 410.728 419.558 411.448C424.003 415.238 425.314 419.915 421.195 424.738C415.494 431.414 409.768 440.417 408.408 446.667C406.608 454.944 412.601 457.693 430.802 452.579L431.531 455.267C411.67 460.848 403.347 457.031 405.733 446.064C407.22 439.229 413.144 429.915 419.127 422.908C422.048 419.488 421.208 416.493 417.799 413.586C417.075 412.969 416.294 412.418 415.513 411.943C415.048 411.661 414.693 411.471 414.506 411.38Z" fill="white"/>
<path opacity="0.0823568" d="M487.864 369.761L447.4 367.005L442.584 398.519L439.803 398.101L445.007 364.045L488.057 366.978L487.864 369.761Z" fill="white"/>
<path opacity="0.0823568" d="M472.593 388.394L474.918 386.798C475.216 387.231 475.619 387.999 476.008 389.092C477.335 392.82 477.486 397.509 475.748 403.041C473.39 410.544 467.784 418.712 458.258 427.477L456.347 425.403C465.532 416.952 470.858 409.191 473.057 402.196C474.607 397.262 474.476 393.2 473.35 390.037C473.047 389.185 472.757 388.633 472.593 388.394Z" fill="white"/>
<path opacity="0.0823568" d="M439.803 428.283L442.346 427.143C442.405 427.278 442.531 427.547 442.721 427.931C443.044 428.581 443.431 429.308 443.881 430.092C445.167 432.336 446.695 434.581 448.453 436.67C453.452 442.612 459.257 446.11 465.803 446.041C474.35 445.95 483.806 439.776 494.116 426.099L496.329 427.801C485.548 442.104 475.37 448.749 465.832 448.85C458.326 448.93 451.817 445.007 446.332 438.489C444.458 436.262 442.838 433.881 441.473 431.5C440.995 430.666 440.582 429.89 440.235 429.191C440.023 428.766 439.879 428.457 439.803 428.283Z" fill="white"/>
<path opacity="0.0823568" d="M466.272 466.651L463.93 465.105C464.1 464.862 464.406 464.464 464.839 463.963C465.552 463.136 466.371 462.31 467.29 461.536C473.773 456.077 481.195 456.099 488.057 465.147L485.777 466.779C479.988 459.145 474.473 459.129 469.145 463.615C468.348 464.286 467.631 465.008 467.009 465.729C466.641 466.156 466.391 466.481 466.272 466.651Z" fill="white"/>
<path opacity="0.0823568" d="M517.765 468.846L519.078 471.277L477.651 493.667L476.338 491.237L517.765 468.846Z" fill="white"/>
<path opacity="0.0823568" d="M487.368 518.456L520.183 529.494L505.829 502.536L508.335 501.252L525.971 534.373L492.277 523.04L500.384 542.972L497.757 544L487.368 518.456Z" fill="white"/>
<path opacity="0.0823568" d="M405.345 41.3691L406.45 43.9283C406.315 43.9857 406.045 44.1077 405.659 44.2938C405.005 44.6088 404.275 44.9866 403.486 45.4267C401.231 46.6857 398.976 48.186 396.876 49.9189C390.916 54.8381 387.404 60.5918 387.463 67.1321C387.54 75.6792 393.714 85.2173 407.404 95.7031L405.688 97.9065C391.38 86.9475 384.742 76.6917 384.656 67.1568C384.589 59.6461 388.534 53.1825 395.08 47.779C397.321 45.9299 399.715 44.3375 402.109 43.0007C402.948 42.5322 403.729 42.1285 404.432 41.7898C404.859 41.5838 405.17 41.4435 405.345 41.3691Z" fill="white"/>
<path opacity="0.0823568" d="M453.024 75.6208L430.978 64.6724L425.361 86.8746L406.714 78.1779L407.908 75.6977L423.479 82.9599L429.116 60.6743L454.279 73.1706L453.024 75.6208Z" fill="white"/>
<path opacity="0.0823568" d="M463.744 85.3039L466.488 44.7051L434.978 40.017L435.384 37.2319L469.445 42.2996L466.526 85.4955L463.744 85.3039Z" fill="white"/>
<path opacity="0.0823568" d="M498.395 70.3269L500.466 72.2074L477.031 99.9746L474.96 98.0941L498.395 70.3269Z" fill="white"/>
<path opacity="0.0823568" d="M467.377 15.1685V17.9264H436.356V15.1685H467.377Z" fill="white"/>
<path opacity="0.0823568" d="M491.597 11.2665L488.289 51.1703L519.767 56.52L519.305 59.2951L485.3 53.516L488.822 11.0315L491.597 11.2665Z" fill="white"/>
<path opacity="0.0823568" d="M522.64 113.764L514.419 87.7362L508.683 112.391L505.98 111.748L514.013 77.2217L524.189 109.439L552.744 91.0631L554.235 93.4325L522.64 113.764Z" fill="white"/>
<path opacity="0.0823568" d="M559.06 43.199L525.277 29.5628L532.58 49.3852L529.93 50.332L520.457 24.6164L552.968 37.7395L537.589 8.87419L540.085 7.58423L559.06 43.199Z" fill="white"/>
<path opacity="0.0823568" d="M562.507 57.5129L562.681 54.469L599.042 56.941L598.867 59.9848L562.507 57.5129Z" fill="white"/>
<path opacity="0.0823568" d="M544.584 55.283L547.371 55.1582C547.378 55.3111 547.407 55.6322 547.47 56.0971C547.579 56.8911 547.75 57.7808 547.999 58.7417C548.71 61.4945 549.891 64.2479 551.647 66.8125C557.386 75.1924 567.789 79.7314 584.33 78.3352L584.566 81.1008C567.052 82.5791 555.666 77.6112 549.341 68.375C547.39 65.5264 546.083 62.4798 545.296 59.4327C544.82 57.5934 544.623 56.1467 544.584 55.283Z" fill="white"/>
<path opacity="0.0823568" d="M495.64 127.026L495.245 129.802C495.152 129.788 494.956 129.765 494.67 129.741C492.577 129.565 490.208 129.697 488.005 130.359C483.237 131.792 480.679 135.254 481.239 141.79L478.491 142.033C477.813 134.113 481.245 129.467 487.224 127.67C489.804 126.894 492.493 126.744 494.897 126.946C495.241 126.975 495.493 127.004 495.64 127.026Z" fill="white"/>
<path opacity="0.0823568" d="M578.521 96.9308L578.362 94.0841C578.408 94.0815 578.47 94.0787 578.563 94.0759C579.349 94.0517 580.355 94.0795 581.506 94.1987C583.219 94.3763 584.914 94.7272 586.513 95.2965C588.704 96.0762 590.58 97.2194 592.029 98.7918C595.714 102.791 602.413 99.7112 605.172 91.6156C608.527 81.773 614.451 79.6503 622.853 84.6681C630.033 88.9563 630.223 89.0225 632.71 88.2725L633.51 91.0058C630.001 92.0637 629.269 91.8085 621.429 87.1256C614.54 83.0116 610.596 84.4251 607.827 92.5479C604.463 102.416 595.373 106.595 589.978 100.739C588.866 99.5334 587.375 98.6247 585.583 97.9871C584.211 97.4986 582.728 97.1916 581.22 97.0352C580.202 96.9297 579.317 96.9053 578.648 96.9259C578.58 96.928 578.532 96.9301 578.521 96.9308Z" fill="white"/>
<path opacity="0.0823568" d="M657.528 94.4586L656.258 92.0132L681.872 78.6006L683.142 81.046L657.528 94.4586Z" fill="white"/>
<path opacity="0.0823568" d="M653.315 75.8427L642.697 44.998L615.082 63.3801L613.518 61.0814L644.168 40.6792L652.77 65.6675L658.352 41.2573L661.083 41.8686L653.315 75.8427Z" fill="white"/>
<path opacity="0.0823568" d="M622.587 37.9215L598.59 25.8199L576.015 35.3623L574.915 32.8044L598.695 22.7529L623.859 35.443L622.587 37.9215Z" fill="white"/>
<path opacity="0.0823568" d="M676.083 157.744L678.153 118.096L646.607 113.783L646.984 111.006L681.074 115.667L678.87 157.891L676.083 157.744Z" fill="white"/>
<path opacity="0.0823568" d="M693.482 128.244V125.486H724.503V128.244H693.482Z" fill="white"/>
<path opacity="0.0823568" d="M616.276 128.259L618.137 126.175C618.284 126.31 618.574 126.57 618.992 126.937C619.693 127.552 620.497 128.237 621.389 128.976C623.938 131.088 626.684 133.2 629.519 135.169C632.913 137.525 636.203 139.514 639.294 141.015C646.109 144.323 651.404 144.997 654.623 142.616L656.258 144.886C651.974 148.055 645.743 147.261 638.096 143.549C634.863 141.979 631.454 139.919 627.951 137.486C625.047 135.469 622.24 133.311 619.633 131.152C618.721 130.396 617.898 129.693 617.178 129.062C616.744 128.682 616.439 128.408 616.276 128.259Z" fill="white"/>
<path opacity="0.0823568" d="M707.269 161.445L706.93 164.238C706.865 164.23 706.721 164.216 706.507 164.201C704.412 164.053 701.974 164.239 699.695 165.012C695.099 166.57 692.53 170.052 692.82 176.375L690.061 176.507C689.71 168.871 693.096 164.283 698.822 162.341C701.499 161.433 704.275 161.221 706.698 161.392C706.963 161.411 707.156 161.43 707.269 161.445Z" fill="white"/>
<path opacity="0.0823568" d="M665.681 29.3665L655.474 14.26L639.197 30.3372L625.237 6.92684L627.616 5.51587L639.766 25.8904L655.902 9.9528L667.977 27.8239L665.681 29.3665Z" fill="white"/>
<path opacity="0.0823568" d="M687.2 27.877C687.239 28.0116 687.271 28.1186 687.295 28.1952C687.382 28.3663 687.501 28.6138 687.645 28.9293C687.94 29.5795 688.234 30.3014 688.509 31.0783C689.286 33.2784 689.762 35.4869 689.78 37.5909C689.822 42.5492 687.294 46.1521 681.751 47.3936C678.65 48.0881 676.332 48.9284 674.711 49.8663C673.404 50.6224 672.659 51.3708 672.327 52.063C672.147 52.4355 672.12 52.7114 672.154 52.8893C672.153 52.8848 672.147 52.8628 672.132 52.8213L669.518 53.7796C669.485 53.6885 669.453 53.571 669.426 53.4287C669.054 51.4951 670.122 49.2739 673.334 47.4157C675.221 46.3242 677.796 45.3905 681.152 44.639C685.348 43.6992 687.032 41.2992 687 37.6153C686.986 35.8715 686.573 33.9576 685.892 32.031C685.646 31.3352 685.383 30.6884 685.12 30.1095C684.965 29.7679 684.847 29.5298 684.786 29.4135L684.695 29.2019C684.564 28.8122 684.376 28.1578 684.191 27.3178C683.847 25.7617 683.656 24.1912 683.7 22.6968C683.824 18.4808 685.837 15.6058 690.12 15.3405C693.247 15.1468 696.153 13.984 698.771 12.1567C699.788 11.4468 700.689 10.6857 701.461 9.92691C701.916 9.47933 702.221 9.14005 702.364 8.96338L704.512 10.754C704.305 11.0098 703.93 11.4275 703.395 11.9531C702.517 12.8163 701.498 13.6772 700.346 14.4811C697.34 16.5789 693.968 17.9283 690.289 18.1561C687.654 18.3194 686.564 19.8763 686.478 22.7812C686.442 24.009 686.606 25.356 686.903 26.7002C686.998 27.129 687.099 27.5249 687.2 27.877Z" fill="white"/>
<path opacity="0.0823568" d="M745.873 47.3906L711.497 34.0521L719.438 54.1408L716.854 55.1584L706.58 29.1697L739.784 42.0531L724.276 13.7406L726.713 12.4106L745.873 47.3906Z" fill="white"/>
<path opacity="0.0823568" d="M745.184 9.15341L746.826 6.89502C747 7.01905 747.314 7.25152 747.748 7.58613C748.465 8.13868 749.262 8.78061 750.12 9.5057C752.567 11.5753 755.014 13.9014 757.302 16.4358C765.815 25.8681 769.92 35.5431 766.993 44.7554C764.731 51.8792 758.307 58.1581 747.269 63.4324L746.049 60.9247C756.445 55.9573 762.312 50.2224 764.314 43.9194C766.868 35.8806 763.129 27.0672 755.208 18.2919C753.011 15.8577 750.654 13.6167 748.296 11.6236C747.472 10.9267 746.708 10.3113 746.024 9.78389C745.617 9.47055 745.33 9.25821 745.184 9.15341Z" fill="white"/>
<path opacity="0.0823568" d="M704.679 62.2518L701.928 101.896L732.086 107.548L731.586 110.317L698.997 104.209L701.923 62.0532L704.679 62.2518Z" fill="white"/>
<path opacity="0.0823568" d="M725.496 79.2291L723.124 77.772C723.418 77.2878 723.989 76.6604 724.895 76.064C731.408 71.7762 743.366 75.6686 762.417 93.0761L760.55 95.1483C750.257 85.743 742.033 80.3769 735.688 78.3116C731.281 76.8773 728.304 77.162 726.415 78.406C725.879 78.7587 725.586 79.0805 725.496 79.2291Z" fill="white"/>
<path opacity="0.0823568" d="M722.435 139.718L749.049 157.535L760.488 126.865L763.106 127.834L750.432 161.813L728.678 147.249L737.741 168.525L735.17 169.612L722.435 139.718Z" fill="white"/>
<path opacity="0.0823568" d="M712.054 189.607L736.072 203.029L759.301 193.398L760.349 196.016L735.895 206.154L710.716 192.084L712.054 189.607Z" fill="white"/>
<path opacity="0.0823568" d="M714.163 241.95L745.663 253.339L731.698 226.02L734.213 224.771L751.388 258.367L718.922 246.629L726.4 266.555L723.758 267.518L714.163 241.95Z" fill="white"/>
<path opacity="0.0823568" d="M756.013 230.286L755.524 227.482C755.78 227.44 756.285 227.318 756.953 227.091C758.082 226.705 759.212 226.16 760.26 225.432C764.507 222.481 766.268 217.521 764.054 209.663L766.878 208.912C769.414 217.908 767.217 224.095 761.964 227.745C759.752 229.282 757.549 230.034 756.013 230.286Z" fill="white"/>
<path opacity="0.0823568" d="M723.274 291.623L757.434 288.722L763.114 255.797L765.864 256.273L759.817 291.324L725.68 294.223L721.743 318.54L718.988 318.093L723.274 291.623Z" fill="white"/>
<path opacity="0.0823568" d="M652.598 258.974L612.34 255.979L607.337 288.203L604.557 287.789L609.952 253.039L652.811 256.228L652.598 258.974Z" fill="white"/>
<path opacity="0.0823568" d="M586.634 250.281H589.392V281.308H586.634V250.281Z" fill="white"/>
<path opacity="0.0823568" d="M662.897 306.129L675.657 271.873L655.947 280.142L654.879 277.575L680.493 266.829L668.053 300.224L696.318 285.132L697.619 287.588L662.897 306.129Z" fill="white"/>
<path opacity="0.0823568" d="M705.282 298.139L701.345 337.028L732.775 341.976L732.345 344.74L698.308 339.383L702.513 297.856L705.282 298.139Z" fill="white"/>
<path opacity="0.0823568" d="M637.408 282.233L638.976 279.929C639.4 280.215 639.937 280.756 640.441 281.601C644.28 288.038 640.275 299.991 623.196 319.229L621.101 317.386C630.358 306.959 635.699 298.648 637.842 292.253C639.323 287.833 639.137 284.867 638.037 283.022C637.867 282.738 637.692 282.514 637.524 282.345C637.444 282.264 637.4 282.228 637.408 282.233Z" fill="white"/>
<path opacity="0.0823568" d="M537.69 289.785L561.955 281.182L540.708 275.727L541.394 273.034L571.468 280.757L541.88 291.247L559.824 319.815L557.483 321.298L537.69 289.785Z" fill="white"/>
<path opacity="0.0823568" d="M530.797 299.883L518.688 322.413L527.836 346.494L525.237 347.498L515.631 322.211L528.35 298.545L530.797 299.883Z" fill="white"/>
<path opacity="0.0823568" d="M503.223 272.572L488.406 282.659L502.858 298.43L480.464 310.955L479.096 308.531L498.425 297.719L484.176 282.17L501.646 270.276L503.223 272.572Z" fill="white"/>
<path opacity="0.0823568" d="M507.296 249.834L506.67 247.117C506.844 247.078 507.134 247.025 507.524 246.974C509.861 246.669 512.44 246.826 514.913 247.798C520.236 249.889 523.355 255.137 523.209 264.071L520.397 264.026C520.525 256.195 518.049 252.028 513.877 250.389C511.915 249.618 509.794 249.489 507.892 249.737C507.592 249.776 507.387 249.814 507.296 249.834Z" fill="white"/>
<path opacity="0.0823568" d="M431.766 264.314L465.38 268.629L479.299 238.56L481.853 239.719L467.072 271.652L433.454 267.336L423.743 288.203L421.191 287.038L431.766 264.314Z" fill="white"/>
<path opacity="0.0823568" d="M419.155 250.971L421.191 252.832L397.72 278.55L395.685 276.689L419.155 250.971Z" fill="white"/>
<path opacity="0.0823568" d="M295.774 224.771L298.487 225.796C298.455 225.874 298.391 226.038 298.299 226.284C298.142 226.701 297.967 227.193 297.778 227.754C297.236 229.366 296.692 231.21 296.184 233.253C293.108 245.631 292.747 258.687 296.839 270.861C297.279 272.17 297.769 273.459 298.31 274.727L295.614 275.792C295.044 274.457 294.528 273.1 294.065 271.722C289.785 258.987 290.159 245.436 293.349 232.602C293.875 230.485 294.44 228.571 295.005 226.891C295.204 226.3 295.389 225.78 295.556 225.334C295.658 225.063 295.732 224.873 295.774 224.771Z" fill="white"/>
<path opacity="0.0823568" d="M318.77 245.559L315.985 246.144C315.948 245.979 315.899 245.703 315.851 245.332C315.579 243.212 315.701 240.881 316.518 238.643C318.427 233.412 323.515 230.486 332.265 231.043L332.079 233.811C324.548 233.332 320.665 235.565 319.203 239.572C318.557 241.34 318.457 243.26 318.679 244.988C318.715 245.274 318.75 245.471 318.77 245.559Z" fill="white"/>
<path opacity="0.0823568" d="M375.454 278.55L363.165 259.582L347.071 275.076L335.022 256.691L337.322 255.107L347.552 270.717L363.658 255.211L377.762 276.979L375.454 278.55Z" fill="white"/>
<path opacity="0.0823568" d="M372.247 295.652L373.27 293.029C374.449 293.502 376.138 294.498 377.825 296.129C379.558 297.804 380.892 299.833 381.658 302.238C383.706 308.674 389.734 311.57 395.529 307.189C403.699 301.012 410.671 302.315 413.99 310.883C416.52 317.41 417.331 318.329 420.501 319.282L419.711 321.987C415.607 320.753 414.218 319.179 411.403 311.915C408.806 305.213 403.987 304.313 397.19 309.451C389.699 315.114 381.595 311.221 379.012 303.105C378.397 301.174 377.321 299.538 375.907 298.171C375.092 297.384 374.217 296.735 373.343 296.22C372.829 295.917 372.442 295.73 372.247 295.652Z" fill="white"/>
<path opacity="0.0823568" d="M462.551 295.595L444.854 315.609L448.992 340.13L446.234 340.603L441.871 314.744L460.464 293.719L462.551 295.595Z" fill="white"/>
<path opacity="0.0823568" d="M465.309 330.265L467.187 328.192L494.951 351.63L493.073 353.703L465.309 330.265Z" fill="white"/>
<path opacity="0.0823568" d="M503.783 410.241L516.949 376.593L490.815 386.934L507.259 352.325L509.779 353.521L496.372 381.736L521.881 371.643L509.193 404.07L537.031 388.705L538.379 391.146L503.783 410.241Z" fill="white"/>
<path opacity="0.0823568" d="M575.26 425.409L564.651 393.209L536.449 411.829L534.933 409.476L566.146 388.866L574.785 415.086L580.484 390.32L583.187 390.957L575.26 425.409Z" fill="white"/>
<path opacity="0.0823568" d="M559.387 354.178C559.26 353.575 559.135 353.1 559.048 352.811L554.841 343.914L557.31 342.672L561.56 351.661L561.63 351.84C561.745 352.201 561.909 352.805 562.072 353.578C562.364 354.969 562.53 356.37 562.504 357.704C562.444 360.793 561.353 363.137 558.865 364.081C550.884 367.108 543.677 365.357 537.69 355.372L540.026 353.881C545.259 362.608 551.068 364.019 557.917 361.422C559.129 360.962 559.718 359.697 559.758 357.647C559.779 356.562 559.637 355.37 559.387 354.178Z" fill="white"/>
<path opacity="0.0823568" d="M650.402 388.177L638.911 367.916L621.611 382.004L612.14 363.24L614.612 361.977L622.531 377.665L639.703 363.681L652.811 386.794L650.402 388.177Z" fill="white"/>
<path opacity="0.0823568" d="M575.447 299.58L578.079 298.545C578.233 298.932 578.454 299.574 578.672 300.39C579.022 301.697 579.24 303.008 579.259 304.259C579.282 305.767 579.014 307.101 578.365 308.206C576.748 310.96 575.72 313.546 575.679 316.126C575.621 319.758 577.731 322.436 583.03 323.985C595.729 327.696 598.023 331.231 595.221 340.006C594.454 342.409 592.863 346.189 592.817 346.34C592.497 347.393 592.496 348.512 592.879 351.248L590.075 351.635C589.64 348.531 589.642 347.058 590.106 345.529C590.207 345.199 591.808 341.394 592.522 339.158C594.81 331.992 593.5 329.974 582.23 326.681C575.742 324.784 572.77 321.011 572.848 316.082C572.899 312.89 574.075 309.933 575.919 306.792C576.274 306.187 576.444 305.34 576.429 304.302C576.414 303.309 576.232 302.215 575.936 301.111C575.826 300.702 575.709 300.321 575.592 299.981C575.524 299.782 575.473 299.644 575.447 299.58Z" fill="white"/>
<path opacity="0.0823568" d="M586.634 368.984L588.413 366.803C588.582 366.935 588.884 367.181 589.302 367.537C589.992 368.123 590.758 368.807 591.581 369.583C593.93 371.795 596.279 374.305 598.472 377.07C609.518 390.988 612.627 405.621 602.723 419.315C602.078 420.206 601.38 421.088 600.626 421.961L598.449 420.16C599.151 419.347 599.8 418.527 600.397 417.701C609.426 405.218 606.583 391.838 596.222 378.783C594.118 376.131 591.861 373.719 589.606 371.595C588.817 370.853 588.087 370.2 587.433 369.644C587.045 369.314 586.772 369.092 586.634 368.984Z" fill="white"/>
<path opacity="0.0823568" d="M578.362 434.75L580.527 432.994L599.732 456.748L597.566 458.504L578.362 434.75Z" fill="white"/>
<path opacity="0.0823568" d="M624.189 411.173L620.65 451.651L652.122 457.136L651.645 459.883L617.654 453.959L621.417 410.93L624.189 411.173Z" fill="white"/>
<path opacity="0.0823568" d="M589.36 470.391L549.629 459.797L538.947 490.221L536.312 489.298L547.85 456.436L590.081 467.697L589.36 470.391Z" fill="white"/>
<path opacity="0.0823568" d="M612.855 484.704L612.829 482.198L643.824 481.946L643.85 484.453L612.855 484.704Z" fill="white"/>
<path opacity="0.0823568" d="M540.448 515.104L565.898 507.568L575.789 484.016L578.362 485.11L567.955 509.888L541.236 517.8L540.448 515.104Z" fill="white"/>
<path opacity="0.0823568" d="M547.752 440.229C546.801 439.668 546.088 439.102 545.641 438.669C545.537 438.604 545.384 438.511 545.187 438.398C544.713 438.128 544.178 437.857 543.596 437.603C541.5 436.691 539.395 436.262 537.506 436.556C535.038 436.94 533.044 438.543 531.611 441.809C526.892 452.57 518.867 454.95 513.144 449.417C512.209 448.512 511.028 447.809 509.651 447.292C508.408 446.825 507.064 446.529 505.698 446.375C504.79 446.273 504.011 446.246 503.443 446.261L503.366 446.264L503.223 443.488C503.258 443.487 503.258 443.487 503.367 443.483C504.06 443.465 504.969 443.496 506.018 443.614C507.604 443.792 509.175 444.138 510.657 444.696C512.377 445.342 513.888 446.241 515.121 447.433C519.318 451.492 525.035 449.796 529.021 440.707C530.827 436.59 533.615 434.348 537.066 433.811C539.577 433.42 542.189 433.952 544.737 435.061C545.907 435.571 546.806 436.084 547.338 436.443L547.555 436.624C547.61 436.68 547.744 436.804 547.951 436.974C548.311 437.269 548.73 437.567 549.202 437.845C551.145 438.991 553.287 439.439 555.549 438.822L556.303 441.5C553.212 442.343 550.307 441.735 547.752 440.229Z" fill="white"/>
<path opacity="0.0823568" d="M576.294 519.598L578.522 517.904C578.596 518 578.742 518.188 578.955 518.452C579.311 518.898 579.72 519.395 580.174 519.931C581.472 521.462 582.868 522.992 584.307 524.417C585.998 526.091 587.632 527.505 589.158 528.57C590.71 529.654 592.097 530.338 593.248 530.575C596.302 531.202 599.397 530.787 600.979 529.526C602.631 528.21 602.652 525.92 600.29 522.342C596.759 516.993 594.808 512.947 594.394 509.449C593.866 504.991 595.972 501.665 600.847 499.779C601.869 499.383 602.928 499.188 604.013 499.184C608.138 499.168 612.319 501.814 616.452 506.184C617.853 507.665 619.149 509.246 620.312 510.827C620.72 511.381 621.082 511.896 621.395 512.36C621.585 512.641 621.718 512.846 621.791 512.96L619.416 514.445C619.359 514.354 619.242 514.174 619.069 513.918C618.776 513.484 618.435 513 618.051 512.477C616.951 510.982 615.726 509.488 614.412 508.098C610.764 504.242 607.163 501.963 604.024 501.975C603.279 501.978 602.56 502.111 601.863 502.381C598.156 503.815 596.803 505.952 597.178 509.122C597.527 512.068 599.326 515.799 602.633 520.808C605.712 525.472 605.674 529.36 602.731 531.706C600.401 533.562 596.479 534.089 592.681 533.309C591.096 532.983 589.386 532.139 587.548 530.855C585.876 529.688 584.125 528.175 582.33 526.396C580.828 524.909 579.379 523.32 578.032 521.731C577.561 521.175 577.136 520.658 576.763 520.194C576.538 519.913 576.379 519.71 576.294 519.598Z" fill="white"/>
<path opacity="0.0823568" d="M658.805 534.347L650.33 507.446L644.475 531.418L641.782 530.732L649.991 497.115L660.339 529.958L688.528 511.339L690.036 513.72L658.805 534.347Z" fill="white"/>
<path opacity="0.0823568" d="M671.201 481.632C670.91 481.799 670.697 481.961 670.579 482.066L666.123 488.303L663.841 486.719L668.371 480.379L668.506 480.217C668.766 479.951 669.197 479.599 669.792 479.257C672.38 477.766 675.486 477.922 678.56 480.7C679.504 481.553 683.201 485.156 684 485.901C688.549 490.142 692.223 492.543 696.185 493.355C701.327 494.41 704.305 494.663 706.583 493.962C709.28 493.132 710.457 490.821 709.844 485.988C709.19 480.835 708.66 476.998 708.243 474.285C708.098 473.34 707.978 472.604 707.881 472.052C707.824 471.73 707.789 471.544 707.774 471.471L710.508 470.915C710.529 471.019 710.57 471.233 710.632 471.584C710.732 472.155 710.855 472.91 711.003 473.873C711.424 476.612 711.957 480.472 712.614 485.647C713.382 491.696 711.537 495.32 707.415 496.588C704.516 497.48 701.235 497.201 695.616 496.049C691.022 495.107 686.975 492.462 682.081 487.899C681.245 487.12 677.569 483.537 676.673 482.727C674.552 480.81 672.782 480.721 671.201 481.632Z" fill="white"/>
<path opacity="0.0823568" d="M716.661 501.942L718.988 503.506L698.568 534.347L696.24 532.783L716.661 501.942Z" fill="white"/>
<path opacity="0.0823568" d="M766.53 534.129L754.654 521.055L740.258 539.173L723.124 517.446L725.341 515.731L740.266 534.657L754.51 516.73L768.621 532.265L766.53 534.129Z" fill="white"/>
<path opacity="0.0823568" d="M742.444 499.436L739.891 500.563C739.765 500.276 739.597 499.793 739.435 499.135C738.662 495.998 738.84 492.348 740.618 488.531C743.452 482.448 740.773 477.195 732.125 475.184C726.841 473.955 723.841 471.52 722.835 467.946C722.089 465.297 722.413 462.673 723.592 458.282C724.881 453.481 724.898 450.946 724.158 448.204L726.85 447.473C727.721 450.7 727.7 453.738 726.285 459.01C724.069 467.259 725.027 470.661 732.755 472.458C743.105 474.865 746.741 481.995 743.145 489.715C741.66 492.904 741.513 495.909 742.143 498.464C742.264 498.958 742.38 499.291 742.444 499.436Z" fill="white"/>
<path opacity="0.0823568" d="M765.403 430.504L756.587 454.287L770 475.652L767.593 477.121L753.456 454.602L762.744 429.546L765.403 430.504Z" fill="white"/>
<path opacity="0.0823568" d="M633.957 428.096L632.131 425.941C632.461 425.65 633.039 425.278 633.878 424.927C636.912 423.657 641.037 423.626 646.272 425.55C653.354 428.155 661.703 434.096 671.423 444.088L669.439 446.094C659.99 436.379 651.973 430.674 645.324 428.23C640.728 426.54 637.318 426.566 634.94 427.561C634.391 427.791 634.067 428 633.957 428.096Z" fill="white"/>
<path opacity="0.0823568" d="M684.245 455.057L683.252 452.448C683.393 452.397 683.675 452.286 684.079 452.116C684.761 451.829 685.523 451.481 686.346 451.074C688.7 449.908 691.054 448.498 693.244 446.845C699.38 442.214 703.025 436.647 703.051 430.127C703.086 421.594 696.927 411.778 683.142 400.67L684.945 398.519C699.326 410.108 705.929 420.631 705.891 430.138C705.86 437.655 701.742 443.945 694.976 449.051C692.633 450.819 690.13 452.319 687.627 453.559C686.75 453.993 685.934 454.365 685.199 454.674C684.753 454.862 684.428 454.99 684.245 455.057Z" fill="white"/>
<path opacity="0.0823568" d="M664.405 406.793L662.462 404.848L688.093 379.214L690.036 381.159L664.405 406.793Z" fill="white"/>
<path opacity="0.0823568" d="M704.512 369.367L704.532 366.803L735.533 366.997L735.513 369.561L704.512 369.367Z" fill="white"/>
<path opacity="0.0823568" d="M738.787 419.894L729.7 395.229L723.736 417.158L721.056 416.423L729.302 386.109L740.202 415.697L767.827 398.17L769.311 400.528L738.787 419.894Z" fill="white"/>
<path opacity="0.0823568" d="M691.415 327.899L667.466 340.585L662.464 365.424L659.705 364.877L664.967 338.742L690.089 325.435L691.415 327.899Z" fill="white"/>
<path opacity="0.0823568" d="M658.084 315.092L660.394 316.657C660.278 316.832 660.06 317.146 659.746 317.581C659.228 318.299 658.625 319.097 657.94 319.955C655.988 322.405 653.777 324.854 651.346 327.143C639.937 337.891 627.938 341.532 616.674 333.469C612.091 330.189 607.813 325.011 603.868 317.793L606.304 316.437C610.06 323.308 614.072 328.165 618.284 331.179C628.204 338.28 638.888 335.038 649.448 325.09C651.774 322.899 653.898 320.547 655.772 318.195C656.428 317.373 657.005 316.611 657.497 315.928C657.79 315.523 657.987 315.238 658.084 315.092Z" fill="white"/>
<path opacity="0.0823568" d="M737.601 321.201L738.471 318.54C738.538 318.561 738.66 318.601 738.833 318.66C739.116 318.757 739.443 318.872 739.81 319.006C740.854 319.388 742.015 319.845 743.263 320.379C746.83 321.904 750.398 323.739 753.737 325.89C761.59 330.949 766.98 336.956 768.72 343.994C770.913 352.868 767.053 362.571 756.22 373.009L754.242 371.007C764.417 361.204 767.897 352.457 765.969 344.658C764.431 338.439 759.497 332.94 752.189 328.232C748.997 326.175 745.568 324.412 742.138 322.946C740.938 322.433 739.824 321.994 738.827 321.629C738.234 321.412 737.815 321.27 737.601 321.201Z" fill="white"/>
<path opacity="0.0823568" d="M265.183 178.437L224.697 175.35L219.925 206.844L217.144 206.43L222.304 172.37L265.398 175.657L265.183 178.437Z" fill="white"/>
<path opacity="0.0823568" d="M280.934 212.36L294.3 178.565L273.948 186.08L272.981 183.438L299.219 173.749L286.415 206.125L313.683 191.083L315.031 193.551L280.934 212.36Z" fill="white"/>
<path opacity="0.0823568" d="M249.238 199.764L251.31 197.881C251.646 198.249 252.088 198.906 252.508 199.864C256.04 207.906 251.971 220.235 234.982 237.181L232.999 235.206C242.177 226.051 247.494 218.2 249.67 211.607C251.191 207 251.046 203.503 249.941 200.984C249.648 200.319 249.377 199.915 249.238 199.764Z" fill="white"/>
<path opacity="0.0823568" d="M214.387 239.04L216.923 237.871C216.986 238.013 217.118 238.298 217.32 238.703C217.66 239.388 218.066 240.154 218.538 240.98C219.886 243.344 221.48 245.708 223.305 247.909C228.421 254.078 234.299 257.75 240.839 257.779C249.347 257.818 258.651 251.684 268.683 237.93L270.913 239.63C260.402 254.041 250.351 260.666 240.827 260.623C233.336 260.59 226.775 256.491 221.183 249.748C219.244 247.41 217.56 244.912 216.135 242.413C215.635 241.538 215.203 240.723 214.839 239.99C214.618 239.545 214.467 239.221 214.387 239.04Z" fill="white"/>
</mask>
<g mask="url(#mask0)">
<rect x="0" width="550" height="460" rx="4" fill="white"/>
</g>
</svg>