<svg width="136" height="37" viewBox="0 0 136 37" fill="none" xmlns="http://www.w3.org/2000/svg">
<path fill-rule="evenodd" clip-rule="evenodd" d="M18 36.5498C27.9411 36.5498 36 28.4821 36 18.53C36 8.57798 27.9411 0.510254 18 0.510254C8.05887 0.510254 0 8.57798 0 18.53C0 28.4821 8.05887 36.5498 18 36.5498Z" fill="white"/>
<path d="M57.7949 22.019C57.7949 20.3433 57.2686 18.9683 56.2266 17.9048C55.1846 16.8413 53.8525 16.3042 52.2305 16.3042C50.6084 16.3042 49.2764 16.8413 48.2344 17.9048C47.1924 18.9683 46.666 20.3433 46.666 22.019C46.666 23.6948 47.1924 25.0698 48.2344 26.1333C49.2764 27.1968 50.6084 27.7339 52.2305 27.7339C53.5947 27.7339 54.7334 27.4224 55.6465 26.7886C56.5596 26.1548 57.1826 25.2417 57.5156 24.0386H54.2822C53.9707 24.7798 53.3154 25.145 52.3164 25.145C51.5967 25.145 51.0166 24.9517 50.5762 24.5649C50.1357 24.1782 49.8564 23.6196 49.7383 22.8892H57.7734C57.8057 22.5024 57.8164 22.2124 57.8164 22.0083L57.7949 22.019ZM52.252 18.9038C52.9287 18.9038 53.4766 19.0864 53.8955 19.4409C54.3145 19.7954 54.5938 20.3218 54.7334 21.02H49.7598C49.8994 20.3218 50.1787 19.7954 50.5977 19.4409C51.0166 19.0864 51.5645 18.9038 52.2412 18.9038H52.252ZM67.5273 27.519H70.6748V11.019H67.4844V17.8403C66.6143 16.8198 65.5293 16.3042 64.2295 16.3042C62.7363 16.3042 61.5117 16.8306 60.5557 17.8833C59.5996 18.936 59.1162 20.311 59.1162 22.0083C59.1162 23.7056 59.5889 25.0806 60.5449 26.1333C61.501 27.186 62.7256 27.7124 64.2188 27.7124C65.5615 27.7124 66.6572 27.1753 67.5166 26.1118L67.5273 27.519ZM64.8525 19.1187C65.6152 19.1187 66.2383 19.3872 66.7324 19.9136C67.2266 20.4399 67.4736 21.1382 67.4736 21.9976C67.4736 22.8569 67.2266 23.5552 66.7324 24.0815C66.2383 24.6079 65.6045 24.8765 64.8418 24.8765C64.0791 24.8765 63.4561 24.6079 62.9619 24.0815C62.4678 23.5552 62.2207 22.8569 62.2207 21.9976C62.2207 21.1382 62.4678 20.4399 62.9619 19.9136C63.4561 19.3872 64.0791 19.1187 64.8418 19.1187H64.8525ZM80.3105 27.519H83.4365V16.519H80.2461V22.5884C80.2461 23.4155 80.085 24.0386 79.752 24.4683C79.4189 24.8979 78.9463 25.1128 78.334 25.1128C77.7217 25.1128 77.249 24.8979 76.916 24.4683C76.583 24.0386 76.4111 23.4155 76.4111 22.5991V16.5298H73.2207V23.3296C73.2207 24.7583 73.5859 25.854 74.3164 26.6167C75.0469 27.3794 76.0029 27.7554 77.1846 27.7554C77.8613 27.7554 78.4736 27.605 79.0215 27.2935C79.5693 26.9819 80.0098 26.5415 80.3428 25.9722L80.3105 27.519ZM89.9248 15.0688C89.9248 14.5532 90.0645 14.1558 90.3545 13.8872C90.6445 13.6187 91.042 13.479 91.5576 13.479C91.9336 13.479 92.3418 13.5435 92.793 13.6831V10.9976C92.3096 10.8687 91.7617 10.8042 91.1387 10.8042C89.8389 10.8042 88.7754 11.1694 87.959 11.8892C87.1426 12.6089 86.7344 13.6401 86.7344 14.9829V16.519H85.1553V19.1187H86.7344V27.519H89.9248V19.1187H92.6318V16.519H89.9248V15.0688ZM104.695 22.019C104.695 20.3433 104.169 18.9683 103.127 17.9048C102.085 16.8413 100.753 16.3042 99.1309 16.3042C97.5088 16.3042 96.1768 16.8413 95.1348 17.9048C94.0928 18.9683 93.5664 20.3433 93.5664 22.019C93.5664 23.6948 94.0928 25.0698 95.1348 26.1333C96.1768 27.1968 97.5088 27.7339 99.1309 27.7339C100.495 27.7339 101.634 27.4224 102.547 26.7886C103.46 26.1548 104.083 25.2417 104.416 24.0386H101.183C100.871 24.7798 100.216 25.145 99.2168 25.145C98.4971 25.145 97.917 24.9517 97.4766 24.5649C97.0361 24.1782 96.7568 23.6196 96.6387 22.8892H104.674C104.706 22.5024 104.717 22.2124 104.717 22.0083L104.695 22.019ZM99.1523 18.9038C99.8291 18.9038 100.377 19.0864 100.796 19.4409C101.215 19.7954 101.494 20.3218 101.634 21.02H96.6602C96.7998 20.3218 97.0791 19.7954 97.498 19.4409C97.917 19.0864 98.4648 18.9038 99.1416 18.9038H99.1523ZM117.156 22.019C117.156 20.3433 116.63 18.9683 115.588 17.9048C114.546 16.8413 113.214 16.3042 111.592 16.3042C109.97 16.3042 108.638 16.8413 107.596 17.9048C106.554 18.9683 106.027 20.3433 106.027 22.019C106.027 23.6948 106.554 25.0698 107.596 26.1333C108.638 27.1968 109.97 27.7339 111.592 27.7339C112.956 27.7339 114.095 27.4224 115.008 26.7886C115.921 26.1548 116.544 25.2417 116.877 24.0386H113.644C113.332 24.7798 112.677 25.145 111.678 25.145C110.958 25.145 110.378 24.9517 109.938 24.5649C109.497 24.1782 109.218 23.6196 109.1 22.8892H117.135C117.167 22.5024 117.178 22.2124 117.178 22.0083L117.156 22.019ZM111.613 18.9038C112.29 18.9038 112.838 19.0864 113.257 19.4409C113.676 19.7954 113.955 20.3218 114.095 21.02H109.121C109.261 20.3218 109.54 19.7954 109.959 19.4409C110.378 19.0864 110.926 18.9038 111.603 18.9038H111.613ZM126.889 27.519H130.036V11.019H126.846V17.8403C125.976 16.8198 124.891 16.3042 123.591 16.3042C122.098 16.3042 120.873 16.8306 119.917 17.8833C118.961 18.936 118.478 20.311 118.478 22.0083C118.478 23.7056 118.95 25.0806 119.906 26.1333C120.862 27.186 122.087 27.7124 123.58 27.7124C124.923 27.7124 126.019 27.1753 126.878 26.1118L126.889 27.519ZM124.214 19.1187C124.977 19.1187 125.6 19.3872 126.094 19.9136C126.588 20.4399 126.835 21.1382 126.835 21.9976C126.835 22.8569 126.588 23.5552 126.094 24.0815C125.6 24.6079 124.966 24.8765 124.203 24.8765C123.44 24.8765 122.817 24.6079 122.323 24.0815C121.829 23.5552 121.582 22.8569 121.582 21.9976C121.582 21.1382 121.829 20.4399 122.323 19.9136C122.817 19.3872 123.44 19.1187 124.203 19.1187H124.214ZM133.914 27.7339C134.44 27.7339 134.87 27.562 135.214 27.2183C135.558 26.8745 135.729 26.4556 135.729 25.9507C135.729 25.4351 135.558 25.0054 135.214 24.6724C134.87 24.3394 134.44 24.1675 133.914 24.1675C133.409 24.1675 132.979 24.3394 132.636 24.6724C132.292 25.0054 132.12 25.4351 132.12 25.9507C132.12 26.4448 132.292 26.8638 132.636 27.2075C132.979 27.5513 133.398 27.7231 133.903 27.7231L133.914 27.7339Z" fill="white"/>
<path fill-rule="evenodd" clip-rule="evenodd" d="M17.6316 15.4711L27.8948 10.3105L30.2632 11.5014L17.6316 17.8528L5.00002 11.5014L7.36845 10.3105L17.6316 15.4711ZM17.6316 26.552L27.8948 21.3915L30.2632 22.5824L17.6316 28.9338L5.00002 22.5824L7.36845 21.3915L17.6316 26.552ZM27.8948 15.8429L17.6316 21.0034L7.36845 15.8429L5.00002 17.0338L17.6316 23.3852L30.2632 17.0338L27.8948 15.8429Z" fill="url(#paint0_linear)"/>
<defs>
<linearGradient id="paint0_linear" x1="30.2632" y1="10.3105" x2="30.2632" y2="28.9338" gradientUnits="userSpaceOnUse">
<stop stop-color="#7B7DAB"/>
<stop offset="1" stop-color="#2A2B53"/>
</linearGradient>
</defs>
</svg>
