<svg width="1117" height="776" viewBox="0 0 1117 776" fill="none" xmlns="http://www.w3.org/2000/svg">
<path opacity="0.0823568" d="M350 191.111L352.609 188L399 227.889L396.391 231L350 191.111Z" fill="white"/>
<path opacity="0.0823568" d="M441 150.856L423.441 184.744L437.697 219.467L433.966 221L419 184.548L437.419 149L441 150.856Z" fill="white"/>
<path opacity="0.0823568" d="M480.87 151.316L476.31 209.545L522 218.022L521.265 222L472 212.859L476.845 151L480.87 151.316Z" fill="white"/>
<path opacity="0.0823568" d="M510.107 174.754L507 172.104C507.495 171.51 508.405 170.739 509.773 170.006C520.671 164.173 538.901 170.437 566 197.052L563.168 200C548.494 185.587 536.373 177.269 526.626 173.919C519.842 171.588 514.977 171.871 511.675 173.638C510.793 174.11 510.282 174.544 510.107 174.754Z" fill="white"/>
<path opacity="0.0823568" d="M571 150.254L573.463 147C573.713 147.186 574.167 147.536 574.796 148.038C575.834 148.867 576.988 149.828 578.23 150.911C581.774 154.003 585.318 157.459 588.63 161.2C599.143 173.076 605.055 185.095 603.844 196.571C602.509 209.213 592.53 219.877 572.777 228L571.205 224.242C589.689 216.641 598.604 207.113 599.762 196.148C600.826 186.069 595.375 174.988 585.545 163.884C582.358 160.284 578.938 156.948 575.518 153.965C574.323 152.922 573.214 151.999 572.221 151.205C571.63 150.734 571.214 150.413 571 150.254Z" fill="white"/>
<path opacity="0.0823568" d="M679 179.267L631.936 161.138L653.993 201.077L650.406 203L623 153.376L671.972 172.239L660.646 142.41L664.47 141L679 179.267Z" fill="white"/>
<path opacity="0.0823568" d="M599.832 237.449L603.64 236C603.678 236.097 603.745 236.272 603.836 236.52C603.986 236.926 604.152 237.394 604.33 237.917C604.837 239.405 605.344 241.042 605.818 242.783C606.833 246.518 607.554 250.209 607.85 253.688C608.405 260.186 607.451 265.411 604.439 268.883C600.721 273.17 594.394 274.161 585.47 271.611C577.823 269.426 571.551 266.123 565.828 261.708C564.138 260.404 562.543 259.043 560.806 257.455C559.853 256.584 557.023 253.913 556.84 253.743C554.194 251.286 552.705 250.224 551.434 249.933C549.159 249.413 546.317 251.887 541.507 259.853L538 257.793C543.669 248.404 547.653 244.935 552.356 246.011C554.578 246.519 556.466 247.866 559.638 250.811C559.842 251.001 562.657 253.658 563.58 254.502C565.24 256.019 566.752 257.309 568.343 258.537C573.672 262.648 579.484 265.709 586.606 267.744C594.142 269.897 598.824 269.164 601.338 266.266C603.48 263.795 604.254 259.553 603.783 254.026C603.509 250.812 602.832 247.347 601.875 243.826C601.425 242.17 600.943 240.612 600.461 239.201C600.174 238.36 599.954 237.76 599.832 237.449Z" fill="white"/>
<path opacity="0.0823568" d="M632 232.033L635.482 230C635.532 230.084 635.638 230.259 635.799 230.517C636.071 230.954 636.395 231.463 636.772 232.038C637.852 233.688 639.125 235.529 640.583 237.514C644.752 243.191 649.556 248.868 654.923 254.161C665.836 264.923 677.62 272.675 690 276.147L688.899 280C675.769 276.317 663.432 268.201 652.072 256.998C646.542 251.545 641.603 245.708 637.315 239.87C635.814 237.825 634.5 235.925 633.381 234.217C632.988 233.616 632.647 233.082 632.359 232.619C632.184 232.338 632.064 232.14 632 232.033Z" fill="white"/>
<path opacity="0.0823568" d="M736.976 305.008L733.969 256.009L686 247.002L686.752 243L737.841 252.593L740.852 301.659L776 309.015L775.165 313L736.976 305.008Z" fill="white"/>
<path opacity="0.0823568" d="M842.018 297L831.022 232.747L793.195 281.667L790 279.194L833.452 223L846 296.318L842.018 297Z" fill="white"/>
<path opacity="0.0823568" d="M794.756 364L813.556 314.031L783.455 325.759L782 321.999L820.497 307L802.401 355.099L842.041 332.893L844 336.415L794.756 364Z" fill="white"/>
<path opacity="0.0823568" d="M784.498 246L766.878 214.582L743.809 237.601L726 211.995L729.296 209.703L744.367 231.373L767.79 208L788 244.036L784.498 246Z" fill="white"/>
<path opacity="0.0823568" d="M770.962 171L805.24 190.451L839.452 175.96L841 179.745L804.984 195L769 174.58L770.962 171Z" fill="white"/>
<path opacity="0.0823568" d="M853 191.478L856.85 190C857.001 190.399 857.333 191.151 857.848 192.137C858.715 193.794 859.775 195.453 861.024 196.992C866.772 204.072 874.179 206.244 883.998 200.748L886 204.373C874.279 210.935 864.754 208.142 857.834 199.618C856.396 197.847 855.191 195.959 854.203 194.07C853.605 192.928 853.207 192.025 853 191.478Z" fill="white"/>
<path opacity="0.0823568" d="M864 236.212L866.506 233C866.756 233.191 867.21 233.549 867.838 234.063C868.875 234.913 870.029 235.899 871.269 237.01C874.811 240.182 878.351 243.732 881.66 247.581C892.566 260.267 898.496 273.138 896.674 285.401C894.812 297.936 884.872 308.637 865.822 317L864.156 313.293C882.025 305.449 890.981 295.808 892.614 284.812C894.224 273.976 888.748 262.09 878.533 250.207C875.348 246.502 871.93 243.075 868.514 240.015C867.319 238.945 866.211 237.999 865.219 237.186C864.629 236.703 864.213 236.375 864 236.212Z" fill="white"/>
<path opacity="0.0823568" d="M928 317.134L931.411 315C931.468 315.089 931.588 315.274 931.769 315.548C932.077 316.01 932.445 316.55 932.872 317.159C934.096 318.906 935.542 320.857 937.202 322.96C941.95 328.975 947.448 334.991 953.624 340.601C963.672 349.73 974.513 356.869 986 361.263L984.551 365C972.55 360.409 961.298 353 950.904 343.557C944.553 337.787 938.908 331.61 934.03 325.431C932.321 323.267 930.83 321.255 929.563 319.446C929.117 318.81 928.731 318.244 928.406 317.755C928.208 317.456 928.072 317.247 928 317.134Z" fill="white"/>
<path opacity="0.0823568" d="M973 272.778L925.779 254.628L947.065 294.114L943.452 296L917 246.933L965.971 265.755L954.462 235.407L958.294 234L973 272.778Z" fill="white"/>
<path opacity="0.0823568" d="M1024.57 329L1006.75 299.448L983.506 322.338L966 296.364L969.325 294.1L984.132 316.07L1007.56 293L1028 326.908L1024.57 329Z" fill="white"/>
<path opacity="0.0823568" d="M662.13 316.759L661 312.986C661.894 312.734 663.555 312.373 665.934 312.017C683.651 309.364 706.536 311.596 733 322.378L731.43 326C705.688 315.512 683.557 313.353 666.552 315.899C665.262 316.093 664.143 316.299 663.203 316.503C662.653 316.623 662.293 316.713 662.13 316.759Z" fill="white"/>
<path opacity="0.0823568" d="M660 296.62L627.59 294.613L641.368 337.745L637.587 339L622 290.205L647.64 291.793L632.048 279.175L634.521 276L660 296.62Z" fill="white"/>
<path opacity="0.0823568" d="M529.889 332L563.626 349.546L597.43 335.516L599 339.238L563.432 354L528 335.573L529.889 332Z" fill="white"/>
<path opacity="0.0823568" d="M521.765 324L509.296 283.495L500.917 319.698L497 318.751L508.746 268L523.986 317.506L564.748 289.395L567 292.804L521.765 324Z" fill="white"/>
<path opacity="0.0823568" d="M466.02 248L466 244.193L508.98 244L509 247.807L466.02 248Z" fill="white"/>
<path opacity="0.0823568" d="M578.138 315L575 312.323C575.937 311.264 577.917 309.837 581.185 308.473C587.304 305.92 595.786 304.599 607 305.108L606.808 309.186C596.19 308.704 588.326 309.929 582.81 312.231C581.222 312.894 579.972 313.591 579.025 314.274C578.505 314.648 578.221 314.907 578.138 315Z" fill="white"/>
<path opacity="0.0823568" d="M401.339 108.3L380.882 122.511L402 146.038L370.226 167L368 163.646L395.882 145.252L374.838 121.808L399.034 105L401.339 108.3Z" fill="white"/>
<path opacity="0.0823568" d="M486 104.118L531.423 122.05L510.308 80.894L513.912 79L540 129.848L493.208 111.375L505.381 142.487L501.605 144L486 104.118Z" fill="white"/>
<path opacity="0.0823568" d="M528.557 60L511.075 30.4412L487.625 52.861L470 27.0369L473.301 24.7116L488.269 46.6425L511.952 24L532 57.8983L528.557 60Z" fill="white"/>
<path opacity="0.0823568" d="M540.836 9L575.222 26.5782L609.524 13.0877L611 16.8438L575.005 31L539 12.5939L540.836 9Z" fill="white"/>
<path opacity="0.0823568" d="M435.665 69.2443L432.021 19.9512L385 11.0006L385.756 7L435.837 16.5331L439.486 65.8942L473 73.0164L472.159 77L435.665 69.2443Z" fill="white"/>
<path opacity="0.0823568" d="M307.996 115.163L356.739 110.936L365.011 63L369 63.6893L360.197 114.702L311.42 118.932L304.982 154L301 153.268L307.996 115.163Z" fill="white"/>
<path opacity="0.0823568" d="M248.917 199L255.878 238.528L280.884 206.736L284 209.231L253.506 248L245 199.702L248.917 199Z" fill="white"/>
<path opacity="0.0823568" d="M291 235H295V281H291V235Z" fill="white"/>
<path opacity="0.0823568" d="M283.996 97L287 99.7274L253.004 140L250 137.273L283.996 97Z" fill="white"/>
<path opacity="0.0823568" d="M301.136 85L299.695 81.1949C299.896 81.1187 300.299 80.9558 300.875 80.7061C301.848 80.2838 302.937 79.7746 304.111 79.1785C307.469 77.4736 310.827 75.4213 313.952 73.0268C322.744 66.2892 327.944 58.261 327.929 48.9533C327.91 36.7635 318.96 22.84 299 7.20211L301.511 4C322.359 20.3338 331.979 35.2979 332 48.947C332.017 59.7332 326.131 68.8206 316.428 76.2557C313.089 78.8145 309.522 80.9947 305.954 82.8059C304.704 83.4405 303.542 83.9844 302.495 84.4384C301.859 84.7145 301.396 84.9015 301.136 85Z" fill="white"/>
<path opacity="0.0823568" d="M360 5.49343L363.26 3C363.762 3.64572 364.455 4.77166 365.132 6.33191C366.714 9.97387 367.372 14.1703 366.585 18.7672C365.71 23.8697 365.843 27.6917 367.332 30.4366C369.182 33.8486 373.28 35.5852 380.618 35.1366C396.391 34.1723 402.04 42.0947 401.327 53.892C401.313 54.1324 401.296 54.378 401.277 54.631C401.216 55.4375 401.15 56.1251 401.012 57.4696C400.293 64.459 400.587 66.8769 403 68.8509L400.38 72C396.467 68.7982 396.056 65.4219 396.917 57.0554C397.051 55.7463 397.114 55.085 397.172 54.3263C397.189 54.0929 397.205 53.8674 397.218 53.6478C397.799 44.0348 393.796 38.4212 380.872 39.2113C372.063 39.7498 366.408 37.3529 363.706 32.3702C361.671 28.6176 361.511 24.0083 362.526 18.0834C363.171 14.3176 362.636 10.9046 361.351 7.94648C361.038 7.22582 360.705 6.59449 360.377 6.0603C360.19 5.75748 360.056 5.56596 360 5.49343Z" fill="white"/>
<path opacity="0.0823568" d="M434.358 92.0588L434 88.0529C434.085 88.0457 434.224 88.0365 434.414 88.0279C437.791 87.8734 441.875 88.3393 445.858 89.9732C454.229 93.4077 458.907 100.883 457.853 113L453.74 112.66C454.643 102.285 450.985 96.4396 444.256 93.679C442.375 92.9074 440.345 92.4281 438.275 92.192C436.849 92.0294 435.59 91.9995 434.608 92.0444C434.474 92.0505 434.389 92.0561 434.358 92.0588Z" fill="white"/>
<path opacity="0.0823568" d="M219 66.9548L257.233 64.9972L277.692 35L281 37.2956L259.418 68.941L219.204 71L219 66.9548Z" fill="white"/>
<path opacity="0.0823568" d="M200.074 -7L216.208 35.9127L255.803 10.7294L258 14.1164L214.159 42L200.852 6.60737L192.945 38.1596L189 37.1901L200.074 -7Z" fill="white"/>
<path opacity="0.0823568" d="M147 14.1141L150.4 12L173 49.8859L169.6 52L147 14.1141Z" fill="white"/>
<path opacity="0.0823568" d="M223.582 125L205.611 95.3945L182.308 117.579L165 91.9757L168.31 89.6618L182.972 111.351L206.451 89L227 122.854L223.582 125Z" fill="white"/>
<path opacity="0.0823568" d="M222 150.618L225.99 150C226.004 150.095 226.041 150.303 226.103 150.607C226.209 151.13 226.348 151.717 226.523 152.351C227.021 154.162 227.698 155.97 228.574 157.642C232.766 165.643 239.53 167.755 250.799 160.467C264.546 151.576 273.517 152.4 277.989 159.683C279.24 161.723 279.821 163.736 280 165.168L275.996 165.684C275.972 165.493 275.893 165.088 275.736 164.543C275.47 163.619 275.083 162.696 274.562 161.847C271.422 156.732 264.992 156.142 252.969 163.918C239.647 172.533 230.272 169.607 225.01 159.563C223.985 157.606 223.206 155.527 222.635 153.451C222.291 152.199 222.09 151.213 222 150.618Z" fill="white"/>
<path opacity="0.0823568" d="M340.023 161L341 164.986C340.648 165.082 339.982 165.303 339.108 165.662C337.642 166.264 336.176 167.027 334.82 167.957C328.669 172.177 326.826 178.014 331.638 186.647C341.926 205.105 340.717 210.106 326.885 215L325.643 211.097C331.785 208.924 333.871 207.591 334.383 205.475C335.041 202.751 333.32 197.79 328.272 188.733C322.316 178.048 324.906 169.847 332.691 164.506C334.29 163.409 335.991 162.523 337.692 161.825C338.719 161.403 339.53 161.134 340.023 161Z" fill="white"/>
<path opacity="0.0823568" d="M89.031 3L107.169 25.3825L131.444 5.85989L134 8.93151L106.56 31L88.2047 8.34952L66.7712 22.6627L48 8.27871L50.4819 5.1487L66.9345 17.756L89.031 3Z" fill="white"/>
<path opacity="0.0823568" d="M7.14571 27.0416L7 23.0088C7.03914 23.0074 7.03914 23.0074 7.1643 23.0046C8.57354 22.9778 10.5294 23.0649 12.8447 23.3616C16.4294 23.8209 19.9871 24.6861 23.3317 26.062C33.3266 30.1735 39.5976 38.0159 40.0524 50.2504C40.492 62.0787 42.8883 68.6308 47.488 72.1088C51.3163 75.0034 55.9341 75.9619 67.5725 76.8661C67.9599 76.8962 68.2804 76.9209 69 76.9762L68.6947 81C67.9747 80.9447 67.6529 80.9199 67.264 80.8897C54.8249 79.9232 49.7563 78.8712 45.0799 75.3353C39.3283 70.9863 36.5261 63.3246 36.0458 50.4013C35.6543 39.8672 30.4391 33.3453 21.8149 29.7975C18.8227 28.5666 15.5982 27.7825 12.3383 27.3647C10.2304 27.0946 8.46571 27.016 7.24006 27.0394L7.14571 27.0416Z" fill="white"/>
<path opacity="0.0823568" d="M112.217 60.0983L108.294 61C108.251 60.8141 108.197 60.5154 108.145 60.1171C107.726 56.8918 108.165 53.2334 110.14 49.731C113.593 43.6078 120.902 39.7301 132.752 39L133 43.0111C122.421 43.6628 116.371 46.8724 113.648 51.7024C112.158 54.3439 111.82 57.1615 112.137 59.6001C112.171 59.8644 112.202 60.0354 112.217 60.0983Z" fill="white"/>
<path opacity="0.0823568" d="M143 79.015L86.0724 84.7599L86.6606 130.948L82.6352 131L82 81.1152L142.597 75L143 79.015Z" fill="white"/>
<path opacity="0.0823568" d="M174.427 184.435L170.238 134.793L123 126.003L123.746 122L174.038 131.358L178.231 181.044L213 188.008L212.199 192L174.427 184.435Z" fill="white"/>
<path opacity="0.0823568" d="M212 208.419L215.727 207L227 238.581L223.273 240L212 208.419Z" fill="white"/>
<path opacity="0.0823568" d="M166.759 221.244L166 217.271C166.203 217.233 166.54 217.183 166.995 217.135C170.413 216.774 174.261 217.093 177.96 218.629C185.665 221.829 190.196 229.381 189.993 242L185.901 241.936C186.078 230.902 182.469 224.887 176.373 222.355C173.408 221.124 170.22 220.86 167.431 221.155C167.088 221.191 166.858 221.225 166.759 221.244Z" fill="white"/>
<path opacity="0.0823568" d="M105.976 228L102 227.301C102.16 226.377 102.598 224.732 103.44 222.45C104.816 218.718 106.852 214.518 109.673 209.933C117.671 196.934 130.321 183.401 148.627 170L151 173.288C133.111 186.384 120.821 199.531 113.104 212.074C110.425 216.428 108.507 220.385 107.223 223.866C106.78 225.068 106.447 226.12 106.21 227.012C106.074 227.525 106.001 227.858 105.976 228Z" fill="white"/>
<path opacity="0.0823568" d="M49.2186 168L49 163.584L109.781 160L110 164.416L49.2186 168Z" fill="white"/>
<path opacity="0.0823568" d="M3 116.467L48.3655 132.607L27.4432 93.9313L31.0344 92L57 139.999L9.71823 123.177L19.8503 151.639L16.005 153L3 116.467Z" fill="white"/>
<path opacity="0.0823568" d="M47.0189 195.067L18.2929 218.958L54 237.441L52.0743 241L11 219.738L44.3521 192L47.0189 195.067Z" fill="white"/>
<path opacity="0.0823568" d="M88.8624 189L90 192.851C89.867 192.889 89.5889 192.978 89.1868 193.118C88.5005 193.358 87.7316 193.655 86.9013 194.009C84.5254 195.024 82.1496 196.298 79.9431 197.841C68.4974 205.843 65.9232 217.247 77.743 233.667L74.4549 236C61.2728 217.688 64.4091 203.794 77.6161 194.56C80.0697 192.844 82.6868 191.441 85.3038 190.323C86.8817 189.649 88.1225 189.215 88.8624 189Z" fill="white"/>
<path opacity="0.0823568" d="M68.4806 276.804L117.163 271.52L126.018 223L130 223.733L120.6 275.237L71.9615 280.516L65.9915 316L62 315.322L68.4806 276.804Z" fill="white"/>
<path opacity="0.0823568" d="M23.3388 256L24 259.958C23.8852 259.977 23.6236 260.029 23.2367 260.123C22.5655 260.287 21.8107 260.51 20.9936 260.801C18.6464 261.637 16.2965 262.842 14.109 264.479C6.54586 270.139 2.6827 279.408 4.57014 293.478L0.504803 294C-1.5721 278.517 2.88176 267.831 11.6176 261.294C14.1578 259.393 16.8733 258 19.5914 257.032C21.2391 256.445 22.5437 256.127 23.3388 256Z" fill="white"/>
<path opacity="0.0823568" d="M16 356.13L31.5639 341.307L24.5449 311.606L44.9978 290L48 292.738L29.0292 312.779L36.0794 342.611L20.4996 357.45L27.2517 387.123L23.252 388L16 356.13Z" fill="white"/>
<path opacity="0.0823568" d="M163.713 302.473L141.947 279.267L166.152 262L168.521 265.264L148.049 279.868L170 303.271L137.179 324L135 320.608L163.713 302.473Z" fill="white"/>
<path opacity="0.0823568" d="M99.2134 321L100 325.022C99.6497 325.1 98.9822 325.288 98.1065 325.609C96.6361 326.147 95.1666 326.855 93.8079 327.746C87.4106 331.941 85.6126 338.334 91.146 348.459C97.956 360.919 96.9365 369.08 90.6851 373.119C88.8343 374.314 87.0097 374.849 85.7072 375L85.2868 370.916C85.4513 370.897 85.8089 370.828 86.2907 370.687C87.109 370.448 87.9264 370.093 88.6763 369.608C92.9359 366.857 93.6418 361.206 87.8024 350.522C81.1767 338.399 83.6587 329.573 91.7771 324.25C93.3996 323.186 95.1242 322.355 96.848 321.724C97.8888 321.344 98.7118 321.111 99.2134 321Z" fill="white"/>
<path opacity="0.0823568" d="M114 353.007L116.725 350L157 383.993L154.275 387L114 353.007Z" fill="white"/>
<path opacity="0.0823568" d="M201 307.887L183.455 341.717L197.559 375.417L193.844 377L179 341.531L197.427 306L201 307.887Z" fill="white"/>
<path opacity="0.0823568" d="M218 295.03L253.792 281.75L221.044 272.889L222.102 269L267 281.148L224.156 297.045L250.28 336.791L246.901 339L218 295.03Z" fill="white"/>
<path opacity="0.0823568" d="M279.265 310.739L280.781 307C281.155 307.154 281.77 307.436 282.547 307.844C283.834 308.519 285.122 309.311 286.333 310.221C292.682 314.992 294.654 321.189 288.937 327.778C283.695 333.821 276.917 345.166 273.522 354.358C269.401 365.515 270.303 372.077 276.696 373.194C285.348 374.707 291.977 373.886 296.823 371.644C297.879 371.155 298.752 370.639 299.449 370.131C299.837 369.848 300.065 369.649 300.141 369.572L303 372.405C302.227 373.195 300.748 374.273 298.499 375.313C292.905 377.901 285.452 378.824 276.01 377.173C266.166 375.452 264.887 366.146 269.761 352.951C273.328 343.295 280.357 331.529 285.915 325.122C289.798 320.646 288.635 316.99 283.933 313.457C282.909 312.688 281.801 312.006 280.693 311.425C280.033 311.079 279.53 310.848 279.265 310.739Z" fill="white"/>
<path opacity="0.0823568" d="M255.961 386.222L221.753 377.229L220.841 410L190 403.394L190.856 399.427L216.906 405.007L217.825 372L257 382.299L255.961 386.222Z" fill="white"/>
<path opacity="0.0823568" d="M68 370.43L46.1695 400.551L52.241 436.3L48.3647 437L42 399.525L64.8478 368L68 370.43Z" fill="white"/>
<path opacity="0.0823568" d="M125.97 431L120.811 393.992L92.9342 424.018L90 421.219L123.626 385L129.079 424.119L150.821 409.953L153 413.388L125.97 431Z" fill="white"/>
<path opacity="0.0823568" d="M180.481 426L183.736 428.414C183.655 428.522 183.491 428.749 183.257 429.085C182.859 429.656 182.414 430.322 181.934 431.076C180.557 433.237 179.178 435.657 177.891 438.273C173.864 446.461 171.639 454.664 172.124 462.211C173.181 478.669 186.949 490.04 218 493.991L217.486 498C184.678 493.825 169.272 481.1 168.075 462.469C167.537 454.106 169.937 445.259 174.247 436.495C175.603 433.738 177.055 431.191 178.508 428.91C179.019 428.109 179.494 427.398 179.922 426.783C180.183 426.407 180.374 426.144 180.481 426Z" fill="white"/>
<path opacity="0.0823568" d="M68.8576 459.058L78.1703 489.497L90.0334 458L135 483.36L133.023 486.889L92.1486 463.837L77.7746 502L65 460.246L68.8576 459.058Z" fill="white"/>
<path opacity="0.0823568" d="M16.1705 436.346L11.3361 493.848L57 501.98L56.2993 506L7 497.22L12.147 436L16.1705 436.346Z" fill="white"/>
<path opacity="0.0823568" d="M16.004 554.92L56.2738 546.71L24.3672 526.446L26.5524 523L67 548.688L24.4248 557.369L61.4033 593L12 592.28L12.0594 588.199L51.132 588.769L16.004 554.92Z" fill="white"/>
<path opacity="0.0823568" d="M133 531.027L87.3771 536.416L92.0822 589.642L88.052 590L83 532.85L132.526 527L133 531.027Z" fill="white"/>
<path opacity="0.0823568" d="M157.193 538.729L174.042 505.633L144.305 507.889L144 503.805L180.971 501L165.263 531.854L200 520.754L185.798 567L181.914 565.79L193.818 527.026L157.193 538.729Z" fill="white"/>
<path opacity="0.0823568" d="M129.08 559.7L130.681 556C130.927 556.104 131.365 556.299 131.969 556.585C132.961 557.055 134.064 557.613 135.25 558.257C138.635 560.094 142.02 562.258 145.189 564.743C154.38 571.951 159.973 580.372 160 589.976C160.035 602.17 150.95 614.87 131.282 628L129 624.667C147.655 612.213 155.956 600.609 155.926 589.987C155.903 581.84 150.972 574.417 142.655 567.894C139.681 565.561 136.484 563.518 133.287 561.783C132.17 561.176 131.133 560.652 130.206 560.213C129.658 559.953 129.273 559.781 129.08 559.7Z" fill="white"/>
<path opacity="0.0823568" d="M77.0977 672.979L97.2897 637.721L49 653.358L63.2874 619L67.0117 620.562L56.1011 646.8L106 630.641L80.5963 675L77.0977 672.979Z" fill="white"/>
<path opacity="0.0823568" d="M32.4507 701.008L38.8559 675.376L6 674.178L16.355 635L20.2665 636.046L11.2141 670.296L44 671.49L36.376 702L32.4507 701.008Z" fill="white"/>
<path opacity="0.0823568" d="M4.75292 740.804L4 736.832C4.15533 736.803 4.434 736.757 4.82667 736.698C5.46827 736.603 6.20497 736.508 7.02749 736.42C14.6421 735.604 22.9754 735.887 30.8795 738.067C46.1134 742.269 56.0929 752.657 58 770.579L53.9185 771C52.1971 754.823 43.4665 745.735 29.7724 741.958C22.4495 739.938 14.6102 739.672 7.47163 740.437C6.70635 740.519 6.0254 740.607 5.43838 740.694C5.09389 740.745 4.86221 740.784 4.75292 740.804Z" fill="white"/>
<path opacity="0.0823568" d="M59.9094 691L70.8356 728.009L105 742.262L103.424 746L67.4724 731.001L56 692.142L59.9094 691Z" fill="white"/>
<path opacity="0.0823568" d="M125 648.248L129.414 648L133 702.752L128.586 703L125 648.248Z" fill="white"/>
<path opacity="0.0823568" d="M102 774.182L134.747 761.896L117.645 735.313L146.405 723L148 726.749L123.673 737.165L140.899 763.94L103.424 778L102 774.182Z" fill="white"/>
<path opacity="0.0823568" d="M174.978 746.612L195.024 712.464L162.565 726.089L161 722.342L204.695 704L180.752 744.787L230 767.304L228.318 771L174.978 746.612Z" fill="white"/>
<path opacity="0.0823568" d="M220 673.14L171.133 652.827L182.371 682.597L178.538 684L164 645.49L211.316 665.158L190.075 623.818L193.725 622L220 673.14Z" fill="white"/>
<path opacity="0.0823568" d="M228.723 518L232 520.267C231.834 520.523 231.515 521.029 231.065 521.763C230.31 522.994 229.468 524.412 228.56 525.996C225.965 530.527 223.368 535.476 220.946 540.675C216.867 549.431 213.71 557.984 211.835 565.974C209.155 577.394 209.255 587.007 212.603 594.241L209.046 596C205.238 587.772 205.129 577.261 208.003 565.013C209.951 556.712 213.203 547.902 217.394 538.906C219.868 533.595 222.517 528.545 225.168 523.919C226.096 522.298 226.959 520.846 227.734 519.581C228.202 518.818 228.539 518.284 228.723 518Z" fill="white"/>
<path opacity="0.0823568" d="M261.462 571.451L247.762 535.422L251.663 534L266 571.705L248.71 605L245 603.153L261.462 571.451Z" fill="white"/>
<path opacity="0.0823568" d="M277.518 622L275 618.857L314.482 588L317 591.143L277.518 622Z" fill="white"/>
<path opacity="0.0823568" d="M305.848 521.164L283.122 542.802L308 563.887L305.342 567L277 542.978L299.85 521.222L281.052 504.009L283.828 501L305.848 521.164Z" fill="white"/>
<path opacity="0.0823568" d="M330.571 566.072L330 562.134C330.135 562.115 330.355 562.09 330.652 562.067C333.794 561.824 337.433 562.209 340.953 563.749C348.061 566.857 352.233 573.749 351.99 585L347.944 584.916C348.153 575.223 344.883 569.822 339.308 567.384C336.499 566.155 333.498 565.837 330.971 566.033C330.76 566.05 330.624 566.065 330.571 566.072Z" fill="white"/>
<path opacity="0.0823568" d="M306 657.431L340.848 638.127L310.719 633.016L311.404 629L353 636.056L314.43 657.422L343.856 673.64L309.65 689L307.972 685.286L334.734 673.268L306 657.431Z" fill="white"/>
<path opacity="0.0823568" d="M296.005 673.885L298 677.42C297.716 677.577 297.214 677.834 296.519 678.159C295.378 678.691 294.1 679.222 292.709 679.717C287.565 681.549 282.319 682.426 277.339 681.798C267.833 680.601 260.908 674.094 257.873 661.374C255.759 652.515 254.354 647.377 252.991 643.721C251.117 638.695 249.464 636.78 246.991 636.245C244.814 635.773 247.406 635.47 233.513 637.486C233.195 637.532 232.883 637.577 232.574 637.62L232 633.611C232.302 633.569 232.608 633.525 232.918 633.48C232.926 633.479 239.756 632.428 241.344 632.242C244.108 631.918 246.093 631.905 247.866 632.29C251.974 633.179 254.523 636.131 256.83 642.319C258.268 646.177 259.705 651.43 261.856 660.443C264.509 671.561 270.088 676.803 277.856 677.782C282.098 678.316 286.736 677.541 291.323 675.907C292.586 675.458 293.745 674.976 294.773 674.496C295.38 674.213 295.8 673.998 296.005 673.885Z" fill="white"/>
<path opacity="0.0823568" d="M244 687.296L246.39 684C246.642 684.182 247.097 684.522 247.726 685.012C248.766 685.821 249.923 686.76 251.167 687.819C254.717 690.843 258.267 694.233 261.586 697.916C273.068 710.659 279.048 723.648 276.364 736.048C273.918 747.351 264.317 757.117 246.715 765L245.046 761.288C261.567 753.889 270.243 745.064 272.38 735.189C274.718 724.385 269.247 712.504 258.555 700.636C255.366 697.097 251.943 693.828 248.521 690.914C247.324 689.895 246.214 688.994 245.221 688.221C244.63 687.762 244.213 687.45 244 687.296Z" fill="white"/>
<path opacity="0.0823568" d="M297.941 755L294 754.137C294.188 753.265 294.668 751.701 295.556 749.514C297.008 745.938 299.104 741.871 301.961 737.38C310.061 724.646 322.606 711.01 340.526 697L343 700.208C325.436 713.94 313.205 727.235 305.358 739.571C302.633 743.854 300.649 747.703 299.29 751.051C298.82 752.207 298.463 753.214 298.202 754.063C298.052 754.552 297.97 754.867 297.941 755Z" fill="white"/>
<path opacity="0.0823568" d="M387 706.14L386.511 710.209C386.43 710.199 386.248 710.181 385.974 710.162C382.954 709.95 379.398 710.266 376.068 711.511C369.74 713.877 366.023 718.97 366.008 728L362 727.993C362.018 717.192 366.829 710.601 374.691 707.66C378.634 706.186 382.716 705.824 386.248 706.071C386.595 706.096 386.85 706.121 387 706.14Z" fill="white"/>
<path opacity="0.0823568" d="M331.239 754.91L330 751.028C330.184 750.968 330.463 750.898 330.829 750.835C335.889 749.957 342.097 752.131 348.184 759.545C351.355 763.408 354.762 763.81 358.788 761.495C362.115 759.583 365.551 755.892 368.193 751.866C374.757 741.866 383.818 739.522 396 749.005L393.517 752.229C383.342 744.308 376.923 745.969 371.578 754.112C368.617 758.624 364.776 762.75 360.802 765.035C355.148 768.285 349.558 767.625 345.056 762.141C342.106 758.548 339.144 756.407 336.273 755.401C334.372 754.735 332.755 754.638 331.519 754.853C331.344 754.883 331.248 754.907 331.239 754.91Z" fill="white"/>
<path opacity="0.0823568" d="M452.04 777L448.049 738.228L419 718.316L421.24 715L451.819 735.961L456 776.586L452.04 777Z" fill="white"/>
<path opacity="0.0823568" d="M375.981 631L383.8 673.583L429.592 668.928L430 672.967L380.495 678L372 631.735L375.981 631Z" fill="white"/>
<path opacity="0.0823568" d="M436 630.979L438.791 628L479 664.021L476.209 667L436 630.979Z" fill="white"/>
<path opacity="0.0823568" d="M443.877 682L477.948 699.567L511.493 686.31L513 690.059L477.724 704L442 685.581L443.877 682Z" fill="white"/>
<path opacity="0.0823568" d="M514.957 774L512.026 748.438L480.422 758.608L477 719.356L481.054 719L484.032 753.16L515.503 743.033L519 773.534L514.957 774Z" fill="white"/>
<path opacity="0.0823568" d="M441.992 553.037L391.932 551.67L386.007 585L382 584.291L388.538 547.516L438.67 548.886L448.009 502L452 502.791L441.992 553.037Z" fill="white"/>
<path opacity="0.0823568" d="M357.939 549L350.582 498.963L311.294 509.784L308 458.257L312.096 458L315.071 504.526L353.971 493.811L362 548.415L357.939 549Z" fill="white"/>
<path opacity="0.0823568" d="M298.313 437.365L240.978 427.598L229.941 473L226 472.059L237.925 423L299 433.404L298.313 437.365Z" fill="white"/>
<path opacity="0.0823568" d="M274.72 465L275 469.103C274.885 469.111 274.635 469.136 274.27 469.183C273.644 469.265 272.941 469.384 272.183 469.545C270.016 470.005 267.852 470.712 265.851 471.709C259.464 474.89 256.163 480.154 257.292 488.439L253.257 489C251.87 478.822 256.188 471.936 264.05 468.02C266.384 466.858 268.865 466.047 271.344 465.52C272.836 465.203 274.012 465.049 274.72 465Z" fill="white"/>
<path opacity="0.0823568" d="M309 404.728L311.941 402C312.014 402.081 312.153 402.236 312.352 402.462C312.681 402.834 313.063 403.27 313.493 403.765C314.717 405.178 316.081 406.786 317.549 408.562C321.743 413.636 325.937 419.042 329.855 424.559C333.436 429.6 336.61 434.492 339.271 439.151C344.893 448.993 348.01 457.379 348 464L344.016 463.994C344.025 458.263 341.122 450.453 335.825 441.179C333.235 436.646 330.132 431.863 326.623 426.923C322.767 421.494 318.632 416.164 314.497 411.161C313.05 409.41 311.707 407.826 310.502 406.437C310.081 405.952 309.708 405.526 309.387 405.163C309.196 404.947 309.066 404.801 309 404.728Z" fill="white"/>
<path opacity="0.0823568" d="M374.316 387.046L366.91 400.008C366.787 400.315 366.595 400.815 366.355 401.475C365.893 402.741 365.43 404.118 364.999 405.553C364.371 407.646 363.865 409.68 363.525 411.578C362.537 417.107 363.136 420.46 365.105 421.107C371.351 423.159 374.198 421.426 386.404 408.899C392.699 402.439 402.288 405.764 406.761 414.537C411.578 423.984 408.698 435.484 397.381 444L394.967 440.72C404.724 433.377 407.062 424.047 403.168 416.411C399.817 409.838 393.35 407.596 389.284 411.769C376.004 425.398 372.175 427.729 363.856 424.996C359.159 423.452 358.227 418.237 359.547 410.85C359.917 408.782 360.46 406.599 361.131 404.365C361.586 402.848 362.074 401.398 362.561 400.06C362.856 399.253 363.087 398.658 363.223 398.325L363.341 398.083L370.815 385L374.316 387.046Z" fill="white"/>
<path opacity="0.0823568" d="M368.405 485.711L395.185 495.894L414.353 452L418 453.622L397.31 501L367 489.475L368.405 485.711Z" fill="white"/>
<path opacity="0.0823568" d="M428.874 508L425 506.879C425.074 506.622 425.223 506.159 425.458 505.503C425.84 504.433 426.329 503.195 426.934 501.799C428.653 497.84 430.968 493.399 433.964 488.571C442.49 474.834 454.758 460.717 471.44 447L474 450.118C457.662 463.552 445.686 477.334 437.39 490.7C434.499 495.359 432.275 499.626 430.633 503.407C430.063 504.72 429.607 505.876 429.255 506.862C429.049 507.439 428.925 507.822 428.874 508Z" fill="white"/>
<path opacity="0.0823568" d="M478.648 498.179L478 494.183C478.163 494.158 478.431 494.124 478.794 494.092C482.229 493.79 486.174 494.193 489.977 495.879C497.55 499.235 502.059 506.717 501.999 519L497.897 518.981C497.949 508.245 494.333 502.246 488.296 499.569C485.231 498.211 481.954 497.876 479.159 498.122C478.894 498.146 478.719 498.167 478.648 498.179Z" fill="white"/>
<path opacity="0.0823568" d="M494.657 463.761L491.291 414.669L444 405.982L444.742 402L495.145 411.258L498.506 460.279L534 466.002L533.346 470L494.657 463.761Z" fill="white"/>
<path opacity="0.0823568" d="M448 608.527L478.633 589.061L455.889 564.788L480.991 547L483.338 550.359L462.087 565.418L485 589.871L450.177 612L448 608.527Z" fill="white"/>
<path opacity="0.0823568" d="M519 554.799L501.435 590.097L515.52 623.428L511.808 625L497 589.96L515.392 553L519 554.799Z" fill="white"/>
<path opacity="0.0823568" d="M412.07 583L413 587.009C412.658 587.092 412.002 587.291 411.139 587.622C409.69 588.18 408.241 588.903 406.9 589.801C401.118 593.677 399.152 599.285 403.076 607.732C403.808 609.306 404.531 610.819 405.402 612.609C405.584 612.983 407.015 615.909 407.388 616.681C408.826 619.656 409.602 621.44 410.105 623.051C411.424 627.272 410.554 630.2 407.064 632.709C405.281 633.99 402.78 635.232 398.58 637L397.042 633.191C400.977 631.534 403.275 630.393 404.741 629.34C406.749 627.897 407.058 626.855 406.261 624.303C405.837 622.947 405.122 621.302 403.77 618.504C403.402 617.743 401.975 614.824 401.789 614.442C400.907 612.632 400.174 611.098 399.431 609.498C394.587 599.072 397.311 591.3 404.686 586.357C406.295 585.278 408.006 584.425 409.717 583.767C410.751 583.369 411.57 583.121 412.07 583Z" fill="white"/>
<path opacity="0.0823568" d="M587 560.007L544.188 576.747L570.545 615.709L567.218 618L538 574.808L573.578 560.897L541.177 552.949L542.129 549L587 560.007Z" fill="white"/>
<path opacity="0.0823568" d="M603 476.782L525.432 505.59L569.756 517.094L568.739 521L512 506.273L601.591 473L603 476.782Z" fill="white"/>
<path opacity="0.0823568" d="M612 516H616V562H612V516Z" fill="white"/>
<path opacity="0.0823568" d="M529 627.151L532.958 626L548 677.849L544.042 679L529 627.151Z" fill="white"/>
<path opacity="0.0823568" d="M647.727 709.583L633.049 688.716L609.172 711L589 678.148L592.413 676L610.02 704.675L633.678 682.596L651 707.223L647.727 709.583Z" fill="white"/>
<path opacity="0.0823568" d="M586 750.994L587.263 747L639 764.006L637.737 768L586 750.994Z" fill="white"/>
<path opacity="0.0823568" d="M628.011 723L661.805 742.425L695.383 727.731L697 731.491L661.559 747L626 726.561L628.011 723Z" fill="white"/>
<path opacity="0.0823568" d="M577.29 687L581 688.537C580.297 690.264 578.811 692.733 576.371 695.194C574.465 697.118 572.236 698.711 569.664 699.856C561.372 703.549 558.27 713.785 565.994 722.35C575.578 732.978 573.426 741.68 563.171 749.125C561.677 750.209 560.313 751.071 558.865 751.88C558.214 752.244 556.261 753.272 555.911 753.47C554.338 754.357 553.598 755.08 552.737 756.734C552.415 757.353 552.087 758.098 551.742 759L548 757.544C548.397 756.505 548.787 755.621 549.186 754.853C550.429 752.467 551.732 751.192 553.952 749.939C554.369 749.704 556.331 748.671 556.922 748.341C558.237 747.606 559.468 746.828 560.828 745.841C569.317 739.678 570.798 733.69 563.027 725.072C553.33 714.319 557.397 700.896 568.044 696.155C570.141 695.221 571.965 693.918 573.535 692.334C574.715 691.144 575.682 689.866 576.449 688.592C576.899 687.844 577.175 687.282 577.29 687Z" fill="white"/>
<path opacity="0.0823568" d="M601.303 589.653L603.01 586C603.388 586.183 604.011 586.517 604.799 586.996C606.103 587.787 607.407 588.707 608.632 589.751C615.079 595.248 616.981 602.031 611.007 609.026C602.736 618.709 594.429 631.767 592.457 640.832C589.845 652.836 598.54 656.823 624.942 649.406L626 653.305C597.188 661.399 585.116 655.863 588.577 639.957C590.734 630.043 599.327 616.535 608.007 606.373C612.243 601.413 611.025 597.068 606.079 592.852C605.03 591.957 603.896 591.157 602.763 590.47C602.089 590.06 601.574 589.784 601.303 589.653Z" fill="white"/>
<path opacity="0.0823568" d="M707.72 529.29L649.021 525.292L642.035 571L638 570.394L645.549 521L708 525.254L707.72 529.29Z" fill="white"/>
<path opacity="0.0823568" d="M685.567 556.314L688.94 554C689.371 554.628 689.956 555.742 690.52 557.328C692.445 562.735 692.665 569.535 690.143 577.559C686.722 588.441 678.59 600.287 664.772 613L662 609.992C675.323 597.735 683.05 586.479 686.239 576.334C688.489 569.177 688.298 563.286 686.665 558.698C686.225 557.462 685.805 556.661 685.567 556.314Z" fill="white"/>
<path opacity="0.0823568" d="M638 614.168L641.689 612.515C641.775 612.71 641.957 613.1 642.234 613.657C642.702 614.6 643.263 615.655 643.915 616.792C645.782 620.047 647.997 623.302 650.548 626.332C657.8 634.95 666.221 640.024 675.716 639.923C688.115 639.792 701.833 630.837 716.789 611L720 613.468C704.36 634.213 689.595 643.852 675.759 643.998C664.87 644.113 655.428 638.425 647.472 628.971C644.753 625.741 642.403 622.288 640.423 618.834C639.729 617.624 639.13 616.498 638.626 615.485C638.32 614.868 638.111 614.42 638 614.168Z" fill="white"/>
<path opacity="0.0823568" d="M676.397 669.815L673 667.572C673.246 667.22 673.69 666.643 674.318 665.916C675.352 664.716 676.541 663.518 677.874 662.396C687.279 654.479 698.045 654.511 708 667.633L704.693 670C696.294 658.928 688.294 658.905 680.565 665.412C679.408 666.385 678.369 667.432 677.467 668.478C676.933 669.097 676.57 669.568 676.397 669.815Z" fill="white"/>
<path opacity="0.0823568" d="M751.096 673L753 676.525L692.904 709L691 705.475L751.096 673Z" fill="white"/>
<path opacity="0.0823568" d="M707 744.953L754.603 760.961L733.78 721.862L737.416 720L763 768.038L714.121 751.6L725.882 780.509L722.071 782L707 744.953Z" fill="white"/>
<path opacity="0.0823568" d="M588.014 53L589.617 56.7118C589.421 56.795 589.029 56.972 588.468 57.2419C587.521 57.6986 586.461 58.2467 585.317 58.885C582.046 60.711 578.774 62.8869 575.728 65.4003C567.082 72.535 561.988 80.8799 562.073 90.3657C562.184 102.762 571.141 116.596 591 131.804L588.511 135C567.756 119.105 558.125 104.231 558.001 90.4017C557.903 79.5084 563.627 70.1337 573.123 62.2966C576.373 59.6148 579.846 57.3052 583.32 55.3663C584.537 54.6869 585.669 54.1014 586.689 53.6102C587.309 53.3113 587.76 53.1078 588.014 53Z" fill="white"/>
<path opacity="0.0823568" d="M657.179 102.678L625.197 86.7987L617.05 119L590 106.387L591.731 102.789L614.32 113.322L622.497 81L659 99.1241L657.179 102.678Z" fill="white"/>
<path opacity="0.0823568" d="M672.73 116.722L676.71 57.8388L631 51.0393L631.59 47L681 54.35L676.765 117L672.73 116.722Z" fill="white"/>
<path opacity="0.0823568" d="M722.996 95L726 97.7274L692.004 138L689 135.273L722.996 95Z" fill="white"/>
<path opacity="0.0823568" d="M678 15V19H633V15H678Z" fill="white"/>
<path opacity="0.0823568" d="M713.135 9.34079L708.336 67.2161L754 74.975L753.33 79L704 70.6182L709.11 9L713.135 9.34079Z" fill="white"/>
<path opacity="0.0823568" d="M758.167 158L746.241 120.25L737.921 156.008L734 155.075L745.652 105L760.414 151.727L801.838 125.075L804 128.512L758.167 158Z" fill="white"/>
<path opacity="0.0823568" d="M811 55.6545L761.993 35.877L772.586 64.6267L768.742 66L755 28.7029L802.162 47.7362L779.852 5.87092L783.474 4L811 55.6545Z" fill="white"/>
<path opacity="0.0823568" d="M816 76.4148L816.253 72L869 75.5852L868.747 80L816 76.4148Z" fill="white"/>
<path opacity="0.0823568" d="M790 73.181L794.044 73C794.054 73.2218 794.095 73.6875 794.187 74.3617C794.345 75.5133 794.593 76.8037 794.954 78.1974C795.986 82.19 797.699 86.1834 800.247 89.903C808.571 102.057 823.663 108.64 847.658 106.615L848 110.626C822.594 112.77 806.076 105.565 796.901 92.1692C794.071 88.0376 792.175 83.619 791.033 79.1996C790.343 76.532 790.057 74.4336 790 73.181Z" fill="white"/>
<path opacity="0.0823568" d="M719 177.234L718.427 181.26C718.292 181.24 718.007 181.206 717.593 181.172C714.556 180.917 711.12 181.108 707.925 182.068C701.007 184.147 697.297 189.169 698.109 198.647L694.123 199C693.138 187.512 698.117 180.774 706.791 178.168C710.534 177.043 714.435 176.825 717.922 177.118C718.421 177.16 718.787 177.203 719 177.234Z" fill="white"/>
<path opacity="0.0823568" d="M839.231 133.585L839 129.457C839.067 129.453 839.157 129.449 839.292 129.445C840.432 129.41 841.892 129.45 843.561 129.623C846.047 129.88 848.505 130.389 850.824 131.215C854.002 132.346 856.725 134.004 858.826 136.284C864.172 142.085 873.89 137.618 877.893 125.876C882.76 111.601 891.353 108.522 903.541 115.8C913.957 122.019 914.232 122.115 917.84 121.028L919 124.992C913.911 126.526 912.849 126.156 901.475 119.364C891.482 113.397 885.76 115.447 881.744 127.229C876.864 141.541 863.677 147.603 855.85 139.109C854.238 137.36 852.074 136.042 849.476 135.117C847.485 134.409 845.334 133.964 843.147 133.737C841.67 133.584 840.386 133.548 839.415 133.578C839.317 133.581 839.247 133.584 839.231 133.585Z" fill="white"/>
<path opacity="0.0823568" d="M953.842 130L952 126.453L989.158 107L991 110.547L953.842 130Z" fill="white"/>
<path opacity="0.0823568" d="M947.731 103L932.328 58.2638L892.268 84.9246L890 81.5907L934.462 52L946.941 88.2422L955.038 52.8384L959 53.725L947.731 103Z" fill="white"/>
<path opacity="0.0823568" d="M903.156 48L868.344 30.4482L835.595 44.2882L834 40.5783L868.496 26L905 44.4053L903.156 48Z" fill="white"/>
<path opacity="0.0823568" d="M980.76 221.787L983.762 164.282L938 158.027L938.546 154L988 160.76L984.803 222L980.76 221.787Z" fill="white"/>
<path opacity="0.0823568" d="M1006 179V175H1051V179H1006Z" fill="white"/>
<path opacity="0.0823568" d="M894 179.022L896.699 176C896.914 176.197 897.334 176.574 897.941 177.106C898.958 177.997 900.123 178.991 901.417 180.063C905.115 183.126 909.099 186.189 913.211 189.044C918.134 192.463 922.907 195.347 927.392 197.523C937.277 202.322 944.958 203.299 949.628 199.846L952 203.138C945.785 207.734 936.746 206.583 925.653 201.199C920.963 198.922 916.018 195.934 910.937 192.406C906.723 189.48 902.651 186.349 898.87 183.218C897.547 182.122 896.353 181.103 895.309 180.188C894.679 179.636 894.236 179.239 894 179.022Z" fill="white"/>
<path opacity="0.0823568" d="M1026 227.154L1025.51 231.206C1025.41 231.194 1025.2 231.173 1024.89 231.151C1021.86 230.937 1018.32 231.207 1015.01 232.328C1008.34 234.589 1004.62 239.638 1005.04 248.809L1001.04 249C1000.53 237.926 1005.44 231.271 1013.75 228.455C1017.63 227.138 1021.66 226.831 1025.17 227.079C1025.56 227.106 1025.84 227.134 1026 227.154Z" fill="white"/>
<path opacity="0.0823568" d="M965.67 35.5922L950.864 13.6823L927.251 37L907 3.04643L910.451 1L928.076 30.5505L951.484 7.43519L969 33.3549L965.67 35.5922Z" fill="white"/>
<path opacity="0.0823568" d="M996.886 33.4317C996.942 33.6269 996.989 33.7822 997.024 33.8932C997.15 34.1413 997.324 34.5004 997.531 34.9579C997.959 35.901 998.386 36.948 998.785 38.0748C999.913 41.2658 1000.6 44.4689 1000.63 47.5204C1000.69 54.7118 997.023 59.9373 988.982 61.7379C984.483 62.7452 981.121 63.964 978.769 65.3244C976.873 66.4209 975.793 67.5064 975.31 68.5103C975.051 69.0505 975.01 69.4508 975.06 69.7088C975.059 69.7022 975.05 69.6704 975.028 69.6101L971.236 71C971.189 70.8679 971.142 70.6975 971.102 70.4911C970.564 67.6866 972.113 64.4651 976.772 61.7701C979.509 60.1869 983.245 58.8327 988.113 57.7427C994.199 56.3797 996.643 52.8988 996.597 47.5558C996.575 45.0266 995.978 42.2509 994.99 39.4566C994.633 38.4474 994.25 37.5093 993.869 36.6696C993.644 36.1742 993.474 35.8289 993.384 35.6601L993.253 35.3534C993.062 34.7881 992.79 33.839 992.521 32.6207C992.022 30.3637 991.745 28.0859 991.809 25.9185C991.989 19.8038 994.909 15.6339 1001.12 15.2491C1005.66 14.9682 1009.87 13.2817 1013.67 10.6316C1015.15 9.60185 1016.45 8.49794 1017.57 7.39747C1018.23 6.74831 1018.68 6.25624 1018.88 6L1022 8.59702C1021.7 8.96811 1021.16 9.57386 1020.38 10.3362C1019.11 11.5882 1017.63 12.8368 1015.96 14.0027C1011.6 17.0453 1006.7 19.0024 1001.37 19.3329C997.545 19.5697 995.963 21.8278 995.839 26.0409C995.787 27.8217 996.024 29.7754 996.455 31.725C996.593 32.3469 996.74 32.9211 996.886 33.4317Z" fill="white"/>
<path opacity="0.0823568" d="M1082 61.7338L1032.13 42.388L1043.65 71.5241L1039.9 73L1025 35.3068L1073.17 53.9925L1050.67 12.9289L1054.21 11L1082 61.7338Z" fill="white"/>
<path opacity="0.0823568" d="M1081 6.2755L1083.38 3C1083.63 3.17988 1084.09 3.51705 1084.72 4.00236C1085.76 4.80376 1086.92 5.7348 1088.16 6.78645C1091.71 9.78818 1095.26 13.1618 1098.58 16.8377C1110.93 30.518 1116.88 44.5503 1112.64 57.9114C1109.36 68.2437 1100.04 77.3504 1084.02 85L1082.26 81.3629C1097.34 74.1584 1105.85 65.8406 1108.75 56.699C1112.46 45.0398 1107.03 32.2571 1095.54 19.5296C1092.36 15.9992 1088.94 12.7489 1085.52 9.85813C1084.32 8.84741 1083.21 7.9548 1082.22 7.18992C1081.63 6.73547 1081.21 6.4275 1081 6.2755Z" fill="white"/>
<path opacity="0.0823568" d="M1022.24 83.288L1018.25 140.787L1062 148.984L1061.27 153L1014 144.142L1018.24 83L1022.24 83.288Z" fill="white"/>
<path opacity="0.0823568" d="M1052.44 107.911L1049 105.798C1049.43 105.096 1050.25 104.186 1051.57 103.321C1061.02 97.102 1078.36 102.747 1106 127.995L1103.29 131C1088.36 117.359 1076.43 109.576 1067.23 106.581C1060.83 104.5 1056.51 104.913 1053.77 106.718C1053 107.229 1052.57 107.696 1052.44 107.911Z" fill="white"/>
<path opacity="0.0823568" d="M1048 195.642L1086.61 221.483L1103.2 177L1107 178.405L1088.61 227.689L1057.06 206.565L1070.2 237.424L1066.47 239L1048 195.642Z" fill="white"/>
<path opacity="0.0823568" d="M1032.94 268L1067.78 287.466L1101.48 273.499L1103 277.295L1067.53 292L1031 271.593L1032.94 268Z" fill="white"/>
<path opacity="0.0823568" d="M1036 343.917L1081.7 360.435L1061.44 320.813L1065.09 319L1090 367.728L1042.9 350.703L1053.75 379.603L1049.92 381L1036 343.917Z" fill="white"/>
<path opacity="0.0823568" d="M1096.71 327L1096 322.933C1096.37 322.871 1097.1 322.695 1098.07 322.365C1099.71 321.806 1101.35 321.015 1102.87 319.959C1109.03 315.679 1111.59 308.485 1108.37 297.089L1112.47 296C1116.15 309.047 1112.96 318.021 1105.34 323.314C1102.13 325.543 1098.94 326.634 1096.71 327Z" fill="white"/>
<path opacity="0.0823568" d="M1049.22 415.961L1098.77 411.753L1107.01 364L1111 364.69L1102.23 415.527L1052.71 419.732L1047 455L1043 454.351L1049.22 415.961Z" fill="white"/>
<path opacity="0.0823568" d="M946.691 368.609L888.291 364.264L881.034 411L877 410.4L884.827 360L947 364.625L946.691 368.609Z" fill="white"/>
<path opacity="0.0823568" d="M851 356H855V401H851V356Z" fill="white"/>
<path opacity="0.0823568" d="M961.631 437L980.141 387.316L951.549 399.31L950 395.586L987.157 380L969.111 428.436L1010.11 406.546L1012 410.109L961.631 437Z" fill="white"/>
<path opacity="0.0823568" d="M1023.12 425.411L1017.41 481.815L1063 488.99L1062.38 493L1013 485.23L1019.1 425L1023.12 425.411Z" fill="white"/>
<path opacity="0.0823568" d="M924.656 402.342L926.93 399C927.545 399.415 928.324 400.2 929.055 401.425C934.625 410.761 928.815 428.098 904.039 456L901 453.326C914.429 438.203 922.177 426.15 925.285 416.875C927.434 410.464 927.164 406.162 925.568 403.486C925.322 403.074 925.067 402.749 924.824 402.504C924.707 402.386 924.644 402.334 924.656 402.342Z" fill="white"/>
<path opacity="0.0823568" d="M780 413.295L815.2 400.818L784.378 392.905L785.373 389L829 400.2L786.078 415.415L812.108 456.85L808.713 459L780 413.295Z" fill="white"/>
<path opacity="0.0823568" d="M770 427.94L752.435 460.618L765.704 495.543L761.934 497L748 460.325L766.45 426L770 427.94Z" fill="white"/>
<path opacity="0.0823568" d="M730 388.329L708.505 402.96L729.47 425.833L696.985 444L695 440.484L723.04 424.802L702.369 402.25L727.712 385L730 388.329Z" fill="white"/>
<path opacity="0.0823568" d="M735.908 355.352L735 351.411C735.252 351.354 735.674 351.277 736.24 351.203C739.629 350.761 743.371 350.989 746.959 352.398C754.68 355.431 759.205 363.043 758.993 376L754.913 375.935C755.099 364.576 751.507 358.533 745.455 356.156C742.61 355.038 739.532 354.851 736.772 355.211C736.338 355.268 736.041 355.322 735.908 355.352Z" fill="white"/>
<path opacity="0.0823568" d="M626.342 376.353L675.103 382.611L695.294 339L699 340.681L677.557 386.995L628.79 380.736L614.702 411L611 409.311L626.342 376.353Z" fill="white"/>
<path opacity="0.0823568" d="M608.048 357L611 359.699L576.952 397L574 394.301L608.048 357Z" fill="white"/>
<path opacity="0.0823568" d="M429.065 319L433 320.488C432.954 320.601 432.861 320.838 432.727 321.195C432.5 321.8 432.246 322.513 431.972 323.327C431.185 325.665 430.396 328.34 429.66 331.303C425.196 349.255 424.674 368.191 430.609 385.848C431.247 387.746 431.958 389.616 432.744 391.456L428.832 393C428.005 391.063 427.256 389.095 426.585 387.097C420.376 368.627 420.919 348.973 425.547 330.359C426.31 327.288 427.129 324.512 427.949 322.075C428.238 321.219 428.506 320.464 428.748 319.818C428.896 319.424 429.004 319.149 429.065 319Z" fill="white"/>
<path opacity="0.0823568" d="M462.424 349.151L458.383 350C458.33 349.76 458.259 349.36 458.189 348.822C457.794 345.746 457.972 342.366 459.157 339.12C461.926 331.533 469.306 327.29 482 328.098L481.73 332.112C470.806 331.417 465.173 334.656 463.052 340.467C462.115 343.032 461.969 345.816 462.291 348.323C462.344 348.738 462.395 349.023 462.424 349.151Z" fill="white"/>
<path opacity="0.0823568" d="M544.652 397L526.825 369.489L503.478 391.961L486 365.297L489.336 363L504.176 385.64L527.541 363.15L548 394.721L544.652 397Z" fill="white"/>
<path opacity="0.0823568" d="M540 421.805L541.484 418C543.195 418.687 545.644 420.131 548.091 422.496C550.605 424.925 552.54 427.868 553.651 431.357C556.623 440.691 565.368 444.891 573.773 438.538C585.626 429.579 595.739 431.469 600.555 443.894C604.224 453.361 605.401 454.695 610 456.077L608.854 460C602.9 458.21 600.885 455.928 596.801 445.391C593.035 435.672 586.044 434.366 576.183 441.819C565.317 450.032 553.561 444.386 549.813 432.615C548.922 429.814 547.361 427.441 545.309 425.458C544.127 424.316 542.857 423.376 541.59 422.629C540.845 422.189 540.283 421.918 540 421.805Z" fill="white"/>
<path opacity="0.0823568" d="M671 421.721L645.327 450.749L651.329 486.314L647.33 487L641 449.495L667.971 419L671 421.721Z" fill="white"/>
<path opacity="0.0823568" d="M675 472.007L677.725 469L718 502.993L715.275 506L675 472.007Z" fill="white"/>
<path opacity="0.0823568" d="M730.813 588L749.911 539.198L712 554.195L735.855 504L739.511 505.735L720.062 546.657L757.066 532.019L738.66 579.05L779.044 556.765L781 560.305L730.813 588Z" fill="white"/>
<path opacity="0.0823568" d="M834.501 610L819.11 563.298L778.2 590.305L776 586.891L821.28 557L833.812 595.029L842.078 559.108L846 560.033L834.501 610Z" fill="white"/>
<path opacity="0.0823568" d="M811.474 506.688C811.291 505.813 811.109 505.124 810.982 504.706L804.88 491.801L808.461 490L814.626 503.038L814.729 503.298C814.895 503.821 815.133 504.697 815.369 505.818C815.793 507.835 816.034 509.867 815.996 511.802C815.909 516.282 814.327 519.682 810.717 521.051C799.139 525.441 788.685 522.902 780 508.419L783.389 506.258C790.979 518.914 799.406 520.962 809.341 517.194C811.1 516.527 811.954 514.692 812.012 511.719C812.043 510.145 811.838 508.417 811.474 506.688Z" fill="white"/>
<path opacity="0.0823568" d="M943.506 556L926.836 526.613L901.739 547.047L888 519.832L891.587 518L903.074 540.754L927.985 520.472L947 553.994L943.506 556Z" fill="white"/>
<path opacity="0.0823568" d="M834.772 427.501L838.59 426C838.814 426.561 839.133 427.492 839.45 428.675C839.958 430.571 840.275 432.472 840.302 434.288C840.335 436.474 839.946 438.41 839.005 440.012C836.66 444.007 835.168 447.757 835.108 451.499C835.024 456.766 838.085 460.651 845.772 462.897C864.194 468.28 867.521 473.406 863.457 486.134C862.345 489.619 860.036 495.101 859.97 495.32C859.506 496.847 859.504 498.47 860.06 502.439L855.992 503C855.362 498.498 855.364 496.362 856.037 494.144C856.183 493.665 858.506 488.147 859.542 484.903C862.86 474.511 860.96 471.583 844.612 466.807C835.199 464.056 830.888 458.583 831.002 451.434C831.076 446.805 832.782 442.516 835.457 437.96C835.971 437.084 836.219 435.854 836.196 434.349C836.174 432.909 835.91 431.322 835.481 429.722C835.322 429.128 835.152 428.576 834.982 428.082C834.883 427.793 834.809 427.594 834.772 427.501Z" fill="white"/>
<path opacity="0.0823568" d="M851 528.163L853.581 525C853.825 525.191 854.265 525.549 854.871 526.065C855.871 526.915 856.982 527.907 858.177 529.032C861.585 532.24 864.991 535.881 868.174 539.891C884.197 560.077 888.707 581.301 874.34 601.161C873.405 602.454 872.391 603.733 871.298 605L868.14 602.387C869.157 601.208 870.099 600.019 870.965 598.821C884.063 580.716 879.939 561.311 864.909 542.375C861.857 538.53 858.583 535.031 855.311 531.95C854.168 530.874 853.108 529.928 852.159 529.121C851.597 528.642 851.201 528.32 851 528.163Z" fill="white"/>
<path opacity="0.0823568" d="M839 623.548L842.141 621L870 655.452L866.859 658L839 623.548Z" fill="white"/>
<path opacity="0.0823568" d="M905.48 589.353L900.346 648.06L946 656.016L945.308 660L896 651.408L901.458 589L905.48 589.353Z" fill="white"/>
<path opacity="0.0823568" d="M854.955 675.24L797.319 659.874L781.823 704L778 702.662L794.738 655L856 671.333L854.955 675.24Z" fill="white"/>
<path opacity="0.0823568" d="M889.038 696L889 692.365L933.962 692L934 695.635L889.038 696Z" fill="white"/>
<path opacity="0.0823568" d="M784 740.09L820.919 729.16L835.268 695L839 696.587L823.904 732.525L785.144 744L784 740.09Z" fill="white"/>
<path opacity="0.0823568" d="M794.597 631.495C793.216 630.681 792.182 629.859 791.533 629.231C791.383 629.137 791.161 629.002 790.875 628.839C790.188 628.447 789.412 628.053 788.567 627.685C785.527 626.362 782.474 625.74 779.733 626.166C776.152 626.724 773.259 629.049 771.182 633.785C764.335 649.393 752.694 652.846 744.392 644.819C743.035 643.508 741.323 642.488 739.325 641.738C737.522 641.06 735.572 640.631 733.591 640.408C732.273 640.259 731.144 640.221 730.319 640.243L730.208 640.247L730 636.221C730.051 636.219 730.051 636.219 730.209 636.214C731.215 636.187 732.533 636.232 734.055 636.403C736.355 636.662 738.634 637.164 740.785 637.972C743.279 638.91 745.471 640.214 747.26 641.943C753.348 647.829 761.641 645.369 767.424 632.187C770.043 626.215 774.088 622.964 779.094 622.185C782.738 621.618 786.526 622.39 790.223 623.999C791.92 624.738 793.224 625.482 793.995 626.003L794.311 626.266C794.39 626.347 794.585 626.527 794.885 626.773C795.407 627.201 796.015 627.633 796.699 628.036C799.518 629.698 802.625 630.348 805.907 629.453L807 633.337C802.516 634.56 798.302 633.679 794.597 631.495Z" fill="white"/>
<path opacity="0.0823568" d="M836 746.608L839.233 744.152C839.34 744.291 839.552 744.563 839.86 744.947C840.378 745.593 840.971 746.314 841.63 747.091C843.512 749.311 845.538 751.531 847.624 753.598C850.077 756.026 852.449 758.076 854.661 759.621C856.913 761.193 858.924 762.185 860.594 762.528C865.025 763.439 869.515 762.836 871.81 761.008C874.206 759.099 874.237 755.778 870.81 750.588C865.688 742.83 862.858 736.962 862.257 731.888C861.492 725.423 864.546 720.6 871.619 717.863C873.101 717.29 874.637 717.006 876.212 717C882.194 716.977 888.26 720.815 894.256 727.153C896.288 729.301 898.168 731.594 899.856 733.888C900.446 734.691 900.972 735.438 901.426 736.11C901.702 736.519 901.895 736.815 902 736.981L898.555 739.134C898.473 739.003 898.303 738.742 898.051 738.37C897.627 737.741 897.132 737.038 896.575 736.28C894.98 734.113 893.203 731.945 891.296 729.929C886.005 724.337 880.781 721.031 876.227 721.049C875.146 721.053 874.104 721.246 873.092 721.637C867.715 723.718 865.752 726.817 866.296 731.414C866.802 735.687 869.411 741.099 874.209 748.364C878.675 755.127 878.621 760.767 874.351 764.169C870.971 766.862 865.281 767.626 859.772 766.494C857.473 766.022 854.993 764.798 852.326 762.936C849.9 761.242 847.361 759.048 844.756 756.468C842.578 754.312 840.475 752.007 838.522 749.702C837.838 748.896 837.221 748.146 836.681 747.472C836.355 747.065 836.124 746.77 836 746.608Z" fill="white"/>
<path opacity="0.0823568" d="M955.696 768L943.4 728.983L934.908 763.752L931 762.757L942.91 714L957.92 761.634L998.813 734.63L1001 738.083L955.696 768Z" fill="white"/>
<path opacity="0.0823568" d="M973.677 691.543C973.256 691.786 972.947 692.02 972.776 692.173L966.311 701.219L963 698.922L969.571 689.726L969.767 689.492C970.145 689.105 970.771 688.595 971.633 688.099C975.388 685.936 979.894 686.162 984.353 690.192C985.722 691.429 991.085 696.655 992.244 697.735C998.842 703.886 1004.17 707.369 1009.92 708.547C1017.38 710.076 1021.7 710.444 1025 709.427C1028.92 708.223 1030.62 704.871 1029.73 697.862C1028.79 690.388 1028.02 684.822 1027.41 680.887C1027.2 679.517 1027.03 678.449 1026.89 677.65C1026.8 677.181 1026.75 676.912 1026.73 676.806L1030.7 676C1030.73 676.15 1030.79 676.462 1030.88 676.97C1031.02 677.798 1031.2 678.893 1031.42 680.29C1032.03 684.262 1032.8 689.861 1033.75 697.366C1034.87 706.141 1032.19 711.396 1026.21 713.235C1022.01 714.529 1017.25 714.124 1009.09 712.453C1002.43 711.087 996.56 707.251 989.46 700.633C988.248 699.503 982.915 694.307 981.616 693.132C978.538 690.351 975.97 690.222 973.677 691.543Z" fill="white"/>
<path opacity="0.0823568" d="M1039.62 721L1043 723.268L1013.38 768L1010 765.732L1039.62 721Z" fill="white"/>
<path opacity="0.0823568" d="M1111.97 767.684L1094.74 748.721L1073.85 775L1049 743.488L1052.22 741L1073.87 768.45L1094.53 742.449L1115 764.98L1111.97 767.684Z" fill="white"/>
<path opacity="0.0823568" d="M1077.03 717.367L1073.32 719C1073.14 718.585 1072.9 717.884 1072.66 716.93C1071.54 712.38 1071.8 707.086 1074.38 701.549C1078.49 692.726 1074.6 685.108 1062.06 682.191C1054.39 680.409 1050.04 676.877 1048.58 671.693C1047.5 667.852 1047.97 664.046 1049.68 657.677C1051.55 650.714 1051.57 647.038 1050.5 643.061L1054.4 642C1055.67 646.68 1055.64 651.086 1053.58 658.733C1050.37 670.697 1051.76 675.631 1062.97 678.238C1077.98 681.729 1083.26 692.07 1078.04 703.267C1075.89 707.892 1075.68 712.25 1076.59 715.956C1076.77 716.673 1076.93 717.156 1077.03 717.367Z" fill="white"/>
<path opacity="0.0823568" d="M1110.33 617.389L1097.54 651.883L1117 682.871L1113.51 685L1093 652.34L1106.47 616L1110.33 617.389Z" fill="white"/>
<path opacity="0.0823568" d="M919.649 613.898L917 610.771C917.479 610.35 918.318 609.81 919.535 609.3C923.935 607.459 929.92 607.413 937.514 610.205C947.788 613.982 959.9 622.599 974 637.092L971.122 640C957.413 625.911 945.784 617.636 936.138 614.09C929.472 611.64 924.525 611.677 921.075 613.121C920.279 613.455 919.809 613.757 919.649 613.898Z" fill="white"/>
<path opacity="0.0823568" d="M992.599 653L991.16 649.217C991.364 649.142 991.773 648.982 992.358 648.735C993.348 648.319 994.454 647.815 995.648 647.223C999.062 645.532 1002.48 643.487 1005.65 641.09C1014.56 634.374 1019.84 626.299 1019.88 616.843C1019.93 604.466 1011 590.23 991 574.12L993.615 571C1014.48 587.808 1024.06 603.07 1024 616.859C1023.96 627.761 1017.98 636.884 1008.17 644.29C1004.77 646.854 1001.14 649.029 997.505 650.827C996.233 651.458 995.05 651.996 993.984 652.445C993.336 652.718 992.865 652.903 992.599 653Z" fill="white"/>
<path opacity="0.0823568" d="M963.819 583L961 580.179L998.181 543L1001 545.821L963.819 583Z" fill="white"/>
<path opacity="0.0823568" d="M1022 528.718L1022.03 525L1067 525.282L1066.97 529L1022 528.718Z" fill="white"/>
<path opacity="0.0823568" d="M1071.72 602L1058.54 566.228L1049.89 598.032L1046 596.966L1057.96 553L1073.77 595.913L1113.85 570.493L1116 573.913L1071.72 602Z" fill="white"/>
<path opacity="0.0823568" d="M1003 468.574L968.259 486.973L961.003 523L957 522.206L964.633 484.301L1001.08 465L1003 468.574Z" fill="white"/>
<path opacity="0.0823568" d="M954.649 450L958 452.27C957.832 452.523 957.516 452.979 957.06 453.61C956.309 454.651 955.433 455.809 954.441 457.053C951.608 460.606 948.401 464.157 944.875 467.478C928.324 483.066 910.918 488.347 894.578 476.654C887.93 471.896 881.724 464.385 876 453.917L879.534 451.95C884.983 461.915 890.804 468.96 896.913 473.332C911.304 483.631 926.802 478.929 942.121 464.501C945.496 461.322 948.576 457.911 951.296 454.5C952.247 453.308 953.083 452.202 953.798 451.213C954.222 450.625 954.508 450.211 954.649 450Z" fill="white"/>
<path opacity="0.0823568" d="M1070 458.86L1071.26 455C1071.36 455.031 1071.54 455.089 1071.79 455.175C1072.2 455.315 1072.67 455.482 1073.21 455.677C1074.72 456.23 1076.4 456.894 1078.21 457.668C1083.39 459.88 1088.57 462.541 1093.41 465.66C1104.8 472.998 1112.62 481.71 1115.14 491.919C1118.33 504.788 1112.73 518.862 1097.01 534L1094.14 531.096C1108.9 516.878 1113.95 504.192 1111.15 492.881C1108.92 483.861 1101.76 475.886 1091.16 469.057C1086.53 466.074 1081.56 463.517 1076.58 461.39C1074.84 460.646 1073.23 460.009 1071.78 459.481C1070.92 459.166 1070.31 458.959 1070 458.86Z" fill="white"/>
<path opacity="0.0823568" d="M384.687 251.8L325.956 247.322L319.035 293L315 292.399L322.485 243L385 247.767L384.687 251.8Z" fill="white"/>
<path opacity="0.0823568" d="M407.537 301L426.926 251.985L397.402 262.885L396 259.053L434.062 245L415.487 291.958L455.044 270.141L457 273.72L407.537 301Z" fill="white"/>
<path opacity="0.0823568" d="M361.558 282.731L364.562 280C365.05 280.534 365.691 281.486 366.301 282.876C371.424 294.54 365.521 312.422 340.876 337L338 334.135C351.314 320.857 359.027 309.47 362.183 299.908C364.389 293.226 364.18 288.154 362.576 284.501C362.152 283.536 361.759 282.951 361.558 282.731Z" fill="white"/>
<path opacity="0.0823568" d="M311 339.695L314.679 338C314.77 338.207 314.963 338.619 315.255 339.207C315.748 340.201 316.338 341.312 317.022 342.51C318.978 345.938 321.289 349.367 323.937 352.559C331.359 361.507 339.885 366.832 349.373 366.875C361.715 366.93 375.212 358.035 389.765 338.086L393 340.552C377.753 361.453 363.172 371.062 349.355 371C338.488 370.951 328.971 365.006 320.859 355.226C318.047 351.836 315.604 348.213 313.536 344.588C312.811 343.318 312.184 342.137 311.656 341.074C311.335 340.428 311.116 339.959 311 339.695Z" fill="white"/>
</svg>
